<?xml version="1.0" encoding="utf-8"?>
<!-- Generator: Adobe Illustrator 27.5.0, SVG Export Plug-In . SVG Version: 6.00 Build 0)  -->
<svg version="1.1" id="_x3C_Layer_x3E_" xmlns="http://www.w3.org/2000/svg" xmlns:xlink="http://www.w3.org/1999/xlink" x="0px"
	 y="0px" viewBox="0 0 2760 1840" style="enable-background:new 0 0 2760 1840;" xml:space="preserve">
<rect style="fill:#FFFFFF;" width="2760" height="1840"/>
<g>
	<g>
		<path style="fill:#EBF3FA;" d="M2496.267,1633.418c-141.454,0-2202.054,0.471-2203.245-2.961l-0.202-0.435
			c0,0-0.202-0.423-0.202-0.635c-0.788-1.716-317.492-483.688,174.864-819.209c192.645-131.281-12.055-217.945,141.136-364.093
			c176.054-167.947,368.186,17.844,563.954-58.313c34.59-13.443,69.299-35.082,104.045-68.285
			c81.056-77.386,192.609-112.623,305.299-120.503c218.742-15.21,464.912,70.344,591.949,195.388
			c25.575,25.181,141.878,155.467,50.201,334.547c-57.885,113.064,184.607,221.05,270.775,350.161
			C2713.921,1407.34,2498.255,1629.139,2496.267,1633.418z"/>
	</g>
	<g>
		<path style="fill:#DFEBF9;" d="M741.892,470.379c26.007-58.831,126.64-23.816,126.64-23.816s53.9,118.154,73.968,123.839
			c20.066,5.685-26.358-110.018-26.358-110.018c40.223,2.226,133.803,66.256,133.803,66.256s-25.552,124.325-4.703,124.896
			c20.848,0.57,17.008-111.237,17.008-111.237c36.599,17.372,65.557,67.597,65.557,67.597
			c33.607,79.723-70.498,118.761-70.498,118.761s-7.926,43.277,11.301,97.247v0.002c0,0,4.651,10.133,8.42,26.724l-10.458-1.599
			c-0.425-2.935-0.952-5.789-1.597-8.552c0.003-0.019-0.002-0.034-0.014-0.05c-0.009-0.04-0.02-0.08-0.028-0.119
			c-0.469-1.726-1.146-4.183-2.002-7.181c-0.001-0.003-0.002-0.007-0.003-0.011c0-0.007-0.006-0.007-0.005-0.014
			c-2.238-6.743-3.69-11.693-4.545-15.238c-0.004-0.011-0.006-0.021-0.007-0.032c-6.571-21.097-16.45-48.785-24.828-55.558
			c0,0,1.407-1.45,2.972-4.453c-0.947,1.42-1.935,2.901-2.972,4.453c-23.766,35.621-114.244,28.33-162.545,10.477
			c-48.302-17.854-24.415-28.594,5.926-47.315c30.341-18.722,85.679-4.103,103.669-10.511c17.99-6.409-4.935-19.073-38.568-21.6
			c-33.635-2.525-55.34,28.177-109.823,25.08c-54.482-3.098-79.953-110.361-79.953-110.361c35.32,17.176,104.935,6.885,109.447-5.51
			c4.512-12.395-94.135-26.17-108.892-32.352C738.045,564.001,715.887,529.21,741.892,470.379z"/>
	</g>
	<g style="opacity:0.5;">
		<g style="opacity:0.5;">
			<path style="fill:#AEC3FF;" d="M771.837,1229.261c0,0,17.446-190.737-54.202-322.055c-9.521-17.452-35.766-13.229-39.502,6.298
				c-0.063,0.325-0.123,0.654-0.181,0.989C672.112,947.935,748.989,1110.645,771.837,1229.261z"/>
		</g>
		<g style="opacity:0.5;">
			<path style="fill:#AEC3FF;" d="M772.068,1284.98c0,0-45.414-252.733-185.718-390.135c-8.555-8.379-22.436-8.961-31.126-0.723
				c-5.659,5.365-9.693,14.773-8.115,31.141C551.317,968.911,702.899,1145.123,772.068,1284.98z"/>
		</g>
	</g>
	<g style="opacity:0.5;">
		<g style="opacity:0.5;">
			<path style="fill:#AEC3FF;" d="M1597.699,1082.288c0,0,149.158-208.953,336.803-279.622
				c24.938-9.392,47.893,17.859,34.604,40.956c-0.222,0.385-0.448,0.772-0.683,1.162
				C1945.097,883.856,1724.678,981.825,1597.699,1082.288z"/>
		</g>
		<g style="opacity:0.5;">
			<path style="fill:#AEC3FF;" d="M1548.716,1138.668c0,0,267.23-216.915,529.917-233.695c16.019-1.023,30.623,10.529,32.24,26.5
				c1.054,10.398-3.08,23.481-19.002,38.723C2049.41,1010.836,1741.315,1057.161,1548.716,1138.668z"/>
		</g>
	</g>
	<g>
		<g>
			<path style="fill:#798EE8;" d="M1258.67,975.527l-51.637,613.977c0,0-5.411,37.219,22.273,37.284
				c45.519,0.108,226.559,0,226.559,0s-34.259-7.747-33.844-25.179c0.49-20.547,60.354-631.894,60.354-631.894L1258.67,975.527z"/>
		</g>
		<g>
			<path style="fill:#AEC3FF;" d="M1472.909,1615.628c-8.953,0.026-184.224,0.323-228.551-0.245
				c-19.319-0.24-22.705-17.176-22.866-28.138c-0.079-5.255,0.588-9.14,0.588-9.14l1.342-15.958l3.424-40.673l3.021-35.936
				l3.885-46.176l3.272-38.975l36.69-436.273l223.705-5.806c0,0-25.211,255.845-43.047,442.079
				c-1.99,20.75-3.885,40.646-5.636,59.219c-0.569,5.93-1.111,11.726-1.645,17.371c-1.653,17.621-3.165,33.801-4.48,48.088
				c-0.693,7.529-1.333,14.526-1.912,20.937c-2.275,25.114-3.609,41.153-3.627,44.203c-0.009,1.777,0.143,3.431,0.436,4.969
				C1441.181,1614.743,1469.548,1615.628,1472.909,1615.628z"/>
		</g>
		<g>
			<polygon style="fill:#AEC3FF;" points="715.389,641.157 841.168,1146.385 858.389,1215.577 916.971,1450.897 2005.325,1450.897 
				1789.402,641.157 			"/>
		</g>
		<g>
			<polygon style="fill:#798EE8;" points="715.387,641.155 697.956,646.967 893.796,1468.475 916.973,1450.9 			"/>
		</g>
		<g>
			<polygon style="fill:#849DEF;" points="893.796,1468.475 1975.452,1468.475 2005.321,1450.9 916.973,1450.9 			"/>
		</g>
		<g>
			
				<rect x="1273.643" y="1615.628" transform="matrix(-1 -1.224647e-16 1.224647e-16 -1 2781.4785 3242.3848)" style="fill:#AEC3FF;" width="234.193" height="11.129"/>
		</g>
		<g>
			<polygon style="fill:#8C9DF4;" points="1448.302,1468.471 1447.093,1476.979 1226.846,1521.475 1229.867,1485.539 
				1231.308,1468.471 			"/>
		</g>
		<g style="opacity:0.5;">
			<path style="fill:#8C9DF4;" d="M1472.909,1615.628c-8.953,0.026-184.224,0.323-228.551-0.245
				c-19.319-0.24-22.705-17.176-22.866-28.138l219.208-41.242c-2.275,25.114-3.609,41.153-3.627,44.203
				c-0.009,1.777,0.143,3.431,0.436,4.969C1441.181,1614.743,1469.548,1615.628,1472.909,1615.628z"/>
		</g>
		<g>
			<polygon style="fill:#8C9DF4;" points="715.387,641.155 1789.402,641.155 1963.662,1291.934 877.397,1291.934 			"/>
		</g>
		<g>
			<polygon style="fill:#5D70C1;" points="1913.006,1263.732 907.402,1263.732 871.467,1120.579 857.564,1065.19 851.895,1042.604 
				814.96,895.487 813.052,887.827 793.524,810.065 784.788,775.271 777.341,745.589 771.258,721.384 759.869,676.021 
				1750.983,676.021 1763.492,721.384 1770.161,745.589 1778.343,775.271 1787.931,810.065 1851.129,1039.291 1851.129,1039.302 
				1856.478,1058.724 1858.971,1067.736 1902.597,1225.986 			"/>
		</g>
		<g>
			<polygon style="fill:#8C9DF4;" points="1285.445,1291.934 917.339,1452.796 877.397,1291.934 			"/>
		</g>
	</g>
	<g>
		<g>
			<path style="fill:#233862;" d="M579.136,1029.154l-71.977-24.992c-11.686-4.059-25.449,5.006-30.739,20.243l-4.514,12.998
				l114.786,39.856l3.783-13.889C595.658,1048.448,590.581,1033.128,579.136,1029.154z"/>
		</g>
		<g>
			<path style="fill:#233862;" d="M1019.462,1182.047l-71.977-24.992c-11.687-4.058-25.449,5.006-30.74,20.243l-4.513,12.998
				l114.786,39.856l3.783-13.888C1035.983,1201.34,1030.906,1186.021,1019.462,1182.047z"/>
		</g>
		<g>
			<path style="fill:#F77D48;" d="M913.587,1626.463c-3.904-0.881-72.374-13.404-90.075-79.251
				c-5.6-20.817-9.813-46.068-12.891-72.824c-4.024-34.875-27.795-64.329-60.963-75.847l-149.611-51.948
				c-35.995-12.499-75.902-3.241-102.948,23.601c-17.827,17.706-35.536,33.614-51.78,45.7
				c-54.699,40.706-116.196,8.103-119.806,6.374c-35.019-16.768-43.383-58.322-25.469-90.295l158.244-282.57
				c3.752-6.703,8.489-12.498,13.922-17.301c8.365-7.383,20.104-9.583,30.65-5.921l59.175,20.548
				c3.701,1.285,12.865,4.426,17.346,9.084c23.289,24.215,48.742,42.887,85.155,55.989l201.849,70.087
				c23.592,8.192,26.44-0.142,50.321-7.463c0.028-0.009,0.057-0.018,0.086-0.026c5.387-1.633,11.174-1.376,16.491,0.472
				l89.513,31.08c7.548,2.621,13.493,8.645,15.771,16.303c2.737,9.214,3.506,19.166,1.896,29.295l-50.928,319.833
				C983.778,1607.576,951.461,1635.006,913.587,1626.463z"/>
		</g>
		<g>
			<path style="fill:#CC613B;" d="M431.06,1141.813c16.946-48.802,69.821-74.774,118.101-58.011
				c48.279,16.765,73.68,69.916,56.735,118.718c-16.945,48.803-69.821,74.774-118.1,58.011
				C439.516,1243.768,414.114,1190.615,431.06,1141.813z"/>
		</g>
		<g>
			<path style="fill:#233862;" d="M577.847,1307.548c8.529-24.564,35.356-37.563,59.922-29.033
				c24.565,8.528,37.564,35.356,29.035,59.922c-8.53,24.565-35.358,37.564-59.924,29.035
				C582.315,1358.941,569.316,1332.113,577.847,1307.548z"/>
		</g>
		<g>
			<path style="fill:#505ABA;" d="M593.426,1312.959c5.543-15.961,22.973-24.406,38.934-18.865
				c15.959,5.542,24.405,22.973,18.864,38.934c-5.543,15.959-22.974,24.406-38.933,18.863
				C596.331,1346.349,587.885,1328.918,593.426,1312.959z"/>
		</g>
		<g>
			<path style="fill:#233862;" d="M702.841,1350.95c8.529-24.565,35.357-37.564,59.922-29.035
				c24.565,8.53,37.564,35.358,29.035,59.923c-8.53,24.565-35.358,37.564-59.924,29.034
				C707.31,1402.344,694.31,1375.515,702.841,1350.95z"/>
		</g>
		<g>
			<path style="fill:#505ABA;" d="M718.421,1356.359c5.542-15.96,22.973-24.406,38.933-18.863
				c15.96,5.541,24.405,22.972,18.864,38.932c-5.543,15.961-22.974,24.406-38.933,18.864
				C721.325,1389.75,712.879,1372.32,718.421,1356.359z"/>
		</g>
		<g>
			<path style="fill:#233862;" d="M785.996,1238.494L655.551,1193.2c-16.969-5.892-25.947-24.424-20.056-41.392l15.684-45.171
				l191.248,66.407l-15.908,45.814C820.751,1235.472,802.608,1244.263,785.996,1238.494z"/>
		</g>
		<g>
			<g>
				<path style="fill:#FFA25C;" d="M520.977,1105.969l31.92,11.083c11.454,3.978,13.216,19.56,2.96,26.178l-26.202,16.907
					c-4.973,3.207-11.579,0.912-13.493-4.686l-11.343-33.183C501.379,1112.206,510.997,1102.503,520.977,1105.969z"/>
			</g>
			<g>
				<path style="fill:#FFA25C;" d="M514.99,1231.929l-31.921-11.084c-11.454-3.978-13.215-19.56-2.96-26.177l26.202-16.907
					c4.972-3.207,11.579-0.913,13.493,4.686l11.343,33.181C534.587,1225.689,524.969,1235.393,514.99,1231.929z"/>
			</g>
			<g>
				<g>
					<path style="fill:#FFA25C;" d="M585.985,1174.771l-11.204,32.266c-4.021,11.578-19.484,13.46-25.978,3.16l-16.589-26.313
						c-3.148-4.993-0.828-11.671,4.735-13.639l32.979-11.66C579.93,1155.049,589.487,1164.684,585.985,1174.771z"/>
				</g>
				<g>
					<path style="fill:#FFA25C;" d="M452.06,1166.427l11.203-32.266c4.02-11.578,19.484-13.459,25.977-3.159l16.589,26.313
						c3.148,4.992,0.829,11.672-4.734,13.638l-32.98,11.661C458.114,1186.149,448.557,1176.515,452.06,1166.427z"/>
				</g>
			</g>
		</g>
		<g>
			<path style="fill:#CC613B;" d="M821.412,1277.354c16.945-48.803,69.82-74.774,118.1-58.01
				c48.279,16.764,73.681,69.915,56.735,118.717c-16.945,48.803-69.821,74.774-118.1,58.011
				C829.867,1379.308,804.467,1326.156,821.412,1277.354z"/>
		</g>
		<g>
			<path style="fill:#FFA25C;" d="M909.05,1259.109c3.493-10.059,14.479-15.382,24.539-11.889
				c10.059,3.492,15.382,14.479,11.89,24.538c-3.493,10.06-14.479,15.383-24.539,11.89
				C910.881,1280.156,905.558,1269.17,909.05,1259.109z"/>
		</g>
		<g>
			<path style="fill:#A8D29F;" d="M880.665,1340.861c3.492-10.059,14.479-15.382,24.538-11.89
				c10.059,3.493,15.383,14.479,11.89,24.539c-3.493,10.059-14.479,15.382-24.539,11.89
				C882.494,1361.907,877.172,1350.921,880.665,1340.861z"/>
		</g>
		<g>
			<path style="fill:#739AF0;" d="M960.56,1302.391c10.061,3.492,15.383,14.479,11.891,24.538
				c-3.493,10.06-14.479,15.383-24.539,11.89c-10.059-3.493-15.383-14.479-11.89-24.539
				C939.516,1304.221,950.502,1298.897,960.56,1302.391z"/>
		</g>
		<g>
			<path style="fill:#233862;" d="M879.488,1274.254c9.922,3.868,14.829,15.045,10.962,24.967
				c-3.868,9.922-15.046,14.828-24.968,10.962c-9.921-3.868-14.828-15.046-10.961-24.968S869.567,1270.386,879.488,1274.254z"/>
		</g>
	</g>
	<g>
		<path style="fill:#152949;" d="M1453.942,1131.264c-20.424,0-35.418,19.185-30.484,39.004l67.239,270.088l10.536,42.33
			l29.908,120.14c3.485,13.999,16.058,23.826,30.484,23.826h600.396c20.64,0,35.673-19.565,30.354-39.51l-115.343-432.557
			c-3.668-13.753-16.123-23.321-30.355-23.321H1453.942z"/>
	</g>
	<g>
		<path style="fill:#505ABA;" d="M1475.831,1131.264c-20.425,0-35.419,19.185-30.484,39.004l67.239,270.088l10.536,42.33
			l29.908,120.14c3.485,13.999,16.057,23.826,30.483,23.826h600.397c20.64,0,35.672-19.565,30.354-39.51l-115.344-432.557
			c-3.667-13.753-16.122-23.321-30.354-23.321H1475.831z"/>
	</g>
	<g>
		<path style="fill:#F99746;" d="M2161.748,1606.759h-563.202c-13.529,0-25.322-9.111-28.596-22.087l-28.051-111.401l-9.884-39.253
			l-26.342-104.582l-36.733-145.863c-4.628-18.376,9.438-36.161,28.596-36.161h556.011c13.357,0,25.041,8.865,28.478,21.622
			l108.202,401.091C2195.209,1588.618,2181.115,1606.759,2161.748,1606.759z"/>
	</g>
	<g>
		<path style="fill:#A8D29F;" d="M569.737,1626.748h94.844c5.084-4.312-3.517-14.104-12.501-14.761
			c-3.903-0.295-8.838,0.522-14.477,1.714c-1.305-17.336-8.759-95.267-36.85-92.135c-31.585,3.505,0,34.319,8.93,52.563
			c6.614,13.512,13.591,32.889,16.779,42.033c-2.565,0.557-5.22,1.101-7.932,1.601c-4.186-12.854-19.762-56.092-39.571-53.572
			c-23.258,2.949-13.909,20.285,2.575,30.575c12.094,7.567,26.945,18.322,34.002,23.518c-5.98,0.977-12.219,1.635-18.55,1.487
			C580.741,1619.384,572.811,1624.172,569.737,1626.748z"/>
	</g>
	<g id="girl_2_12_">
		<g>
			<path style="fill:#233862;" d="M2026.777,1217.805c-17.73-5.173-37.757,0.763-50.269,14.35
				c-30.953,33.616-8.13,59.53-23.621,83.063c-9.358,14.217-17.222,39.118,11.778,53.846c13.408,6.811,53.349,42.404,61.526,43.243
				c82.88,8.511,84.368-75.567,56.43-99.936C2043.357,1278.123,2079.23,1233.104,2026.777,1217.805z"/>
		</g>
		<g>
			<path style="fill:#ED985F;" d="M1983.465,1347.791c0,0-75.639,36.642-89.807,36.023c-14.167-0.618-102.729-31.805-102.729-31.805
				l2.223,15.019c0,0,67.375,38.75,90.931,40.948c23.19,2.164,102.486-20.813,110.142-25.665
				C2001.88,1377.461,2005.713,1352.701,1983.465,1347.791z"/>
		</g>
		<g>
			<path style="fill:#FFB27D;" d="M1975.138,1382.354c6.854,4.756,15.45,8.678,26.241,11.167
				c40.447,9.346,55.947-24.84,61.77-48.306c-5.517-3.157-10.705-3.854-13.704-4.211c-2.923-0.345-5.997-0.574-8.544-0.699
				c-4.541-3.479-11.31-17.717-12.807-39.822l-1.902,0.51l-31.877,8.725c0,0,1.461,10.134,2.176,19.711
				c0.553,7.495,0.639,14.657-0.78,16.41c-2.487,0.539-3.979,0.893-3.979,0.893s-0.002,0.01-0.017,0.029
				C1991.286,1347.461,1982.039,1362.67,1975.138,1382.354z"/>
		</g>
		<g>
			<path style="fill:#ED985F;" d="M1994.313,1309.723c0,0,1.466,10.125,2.176,19.711c18.06-1.809,26.441-19.003,29.704-28.435
				L1994.313,1309.723z"/>
		</g>
		<g>
			<path style="fill:#FFB27D;" d="M1988.92,1319.235c0,0,42.867-2.366,40.982-29.039c-1.883-26.673,2.381-44.941-25.068-44.559
				c-27.449,0.382-32.042,10.935-33.578,19.991C1969.719,1274.685,1977.721,1319.162,1988.92,1319.235z"/>
		</g>
		<g>
			<path style="fill:#233862;" d="M1971.465,1250.708c6.043-8.497,11.17-7.096,14.146-4.884
				c22.479-14.545,38.924,3.395,38.924,3.395c4.236,18.932,18.822,28.904,18.822,28.904s-7.598,6.075-25.78,2.045
				c-23.265-5.157-31.252-25.33-32.339-28.429c-2.445,2.534-5.604,4.147-8.025,9.646c-2.877,6.531-4.686,10.321-4.735,21.049
				C1972.478,1282.434,1962.402,1263.451,1971.465,1250.708z"/>
		</g>
		<g>
			<path style="fill:#739AF0;" d="M2075.358,1469.509c3.871-19.789,16.493-98.854,3.871-124.296
				c-4.533-9.141-22.32-9.964-41.837-9.162c-6.072,3.92-29.213,18.735-38.718,16.887c-0.103-0.02-0.288-0.064-0.532-0.125
				c-4.476-1.119-6.166-4.264-2.433-6.975c0.009-0.006-9.124-0.54-20.572,2.864c-13.645,4.058-25.397,12.705-25.397,12.705
				s8.443,13.133,22.021,18.877c-2.309,20.654,1.125,29.767,22.553,77.475c18.107,40.327-2.442,76.634-2.442,76.634
				s106.591,85.7,107.185,42.065C2099.501,1543.607,2070.412,1494.803,2075.358,1469.509z"/>
		</g>
		<g>
			<path style="fill:#94B0ED;" d="M1986.588,1627.58c-5.797-0.654-11.016-3.828-14.256-8.679c-0.516-0.77-1.064-1.597-1.648-2.481
				c-12.133-18.367-16.854-74.617-44.145-134.541c-6.648-14.589-30.509-17.212-37.016-33.705c0,0-16.014-53.454,30.652-55.031
				s124.979,148.733,126.215,164.496C2047.588,1572.911,2077.243,1637.81,1986.588,1627.58z"/>
		</g>
		<g>
			<path style="fill:#0A2035;" d="M1801.111,1627.271h66.42c0,0,2.482-10.876-1.877-18.278c-3.861-6.548-2.381-10.279,0.478-15.697
				c-3.009,1.265-6.901,2.415-11.188,2.164c-3.309-0.196-6.808-1.737-9.877-3.568c-2.859,3.347-15.1,17.59-18.924,20.412
				C1821.802,1615.506,1802.448,1614.364,1801.111,1627.271z"/>
		</g>
		<g>
			<path style="fill:#94B0ED;" d="M1888.006,1408.595c-4,29.983-19.618,124.622-47.168,170.794
				c-8.884,14.886,22.378,23.23,22.547,23.187c4.192-1.097,11.178-7.781,14.397-10.684c22.367-20.158,67.772-77.238,67.772-123.001
				c0-22.313,0.392-64.93-15.833-75.76C1919.729,1386.46,1889.594,1396.686,1888.006,1408.595z"/>
		</g>
		<g>
			<path style="fill:#5A7DE0;" d="M2072.749,1382.312c0,0-13.479,27.421-76.398,46.796s-26.932-29.304-26.932-29.304l87.964-30.741
				L2072.749,1382.312z"/>
		</g>
		<g>
			<path style="fill:#AEC3FF;" d="M2019.022,1627.648c0,0-3.367-5.047-5.502-12.543c-3.57-12.53-4.84-21.647-11.697-41.165
				c-7.206-20.488-15.751-45.694-26.433-71.922c-3.295-8.095-6.795-16.288-10.519-24.471c-6.648-14.588-24.935-12.571-31.44-29.065
				c0,0-25.386-57.172,21.28-58.75c46.665-1.576,135.341,152.941,140.436,167.906
				C2100.726,1574.021,2120.771,1643.345,2019.022,1627.648z"/>
		</g>
		<g>
			<path style="fill:#0D2644;" d="M1849.868,1627.271h66.42c0,0,2.483-10.876-1.878-18.278c-3.859-6.548-2.381-10.279,0.479-15.697
				c-3.009,1.265-6.902,2.415-11.188,2.164c-3.31-0.196-6.809-1.737-9.878-3.568c-2.858,3.347-15.099,17.59-18.924,20.412
				C1870.56,1615.506,1851.205,1614.364,1849.868,1627.271z"/>
		</g>
		<g style="opacity:0.5;">
			<path style="fill:#94B0ED;" d="M2001.823,1573.94c-7.206-20.488-15.751-45.694-26.433-71.922
				c2.79-19.87,8.807-37.253,18.924-44.26C1994.314,1457.759,2018.86,1533.799,2001.823,1573.94z"/>
		</g>
		<g>
			<path style="fill:#AEC3FF;" d="M1926.777,1406.47c-4,29.983-9.632,126.747-37.184,172.919
				c-8.882,14.886,22.379,23.23,22.548,23.187c4.193-1.097,11.178-7.781,14.397-10.684c22.367-20.158,67.773-77.238,67.773-123.001
				c0-22.313-26.187-63.14-42.412-73.971C1941.908,1388.25,1928.365,1394.561,1926.777,1406.47z"/>
		</g>
		<g>
			<g>
				<path style="fill:#505ABA;" d="M1783,1313.37l68.021-7.226c1.981-0.21,3.857,0.941,4.566,2.806l24.337,63.948
					c1.067,2.805-0.929,5.828-3.926,5.949l-67.495,2.723c-1.834,0.074-3.521-1-4.229-2.692l-24.862-59.448
					C1778.279,1316.719,1780.078,1313.68,1783,1313.37z"/>
			</g>
			<g>
				<path style="fill:#233862;" d="M1777.092,1313.988l68.021-7.225c1.981-0.211,3.857,0.941,4.566,2.805l24.338,63.948
					c1.066,2.805-0.929,5.828-3.927,5.95l-67.495,2.722c-1.834,0.075-3.521-1-4.229-2.692l-24.861-59.448
					C1772.37,1317.337,1774.169,1314.299,1777.092,1313.988z"/>
			</g>
			<g>
				<path style="fill:#EBF3FA;" d="M1814.794,1343.848c-0.831-2.283,0.347-4.134,2.629-4.134c2.283,0,4.807,1.851,5.638,4.134
					c0.83,2.282-0.346,4.133-2.629,4.133C1818.149,1347.98,1815.625,1346.13,1814.794,1343.848z"/>
			</g>
			<g>
				<path style="fill:#EBF3FA;" d="M1779.126,1320.031c-0.407-1.121,0.17-2.03,1.292-2.03c1.121,0,2.361,0.909,2.771,2.03
					c0.407,1.122-0.171,2.031-1.292,2.031S1779.534,1321.153,1779.126,1320.031z"/>
			</g>
		</g>
		<g>
			<path style="fill:#FFB27D;" d="M2063.148,1345.215c0,0-94.273,34.717-108.437,34.006c-9.156-0.461-85.258-27.211-85.258-27.211
				l-6.831,12.924c0,0,74.07,47.607,94.433,47.371c40.203-0.464,108.039-25.142,115.693-29.993
				C2080.406,1377.461,2085.396,1350.124,2063.148,1345.215z"/>
		</g>
		<g>
			<path style="fill:#FFB27D;" d="M1869.454,1352.01c0,0-6.831-10.514-13.634-10.822s-18.553,4.638-22.572,5.411
				c-4.02,0.772-15.46,4.483-12.059,10.049c3.4,5.566,19.17,6.804,25.973,5.566s15.461,2.72,15.461,2.72L1869.454,1352.01z"/>
		</g>
		<g>
			<path style="fill:#FFB27D;" d="M1857.672,1341.511c0,0-10.818-4.962-13.911-5.889c-3.092-0.929-2.474,0.014-1.545,2.944
				c0.927,2.93,6.493,5.727,6.493,6.648C1848.709,1346.135,1857.672,1341.511,1857.672,1341.511z"/>
		</g>
		<g>
			<path style="fill:#FFB27D;" d="M1784.098,1346.444c0,0,4.316-14.219,9.055-9.754c4.933,4.649,1.938,9.303,1.335,15.228
				c-1.155,11.336-3.447,10.848-4.897,10.336C1788.141,1361.742,1782.494,1352.146,1784.098,1346.444z"/>
		</g>
		<g>
			<path style="fill:#FFB27D;" d="M1783.84,1348.608c0,0-2.181,12.104,9.313,18.42l-3.402-8.329L1783.84,1348.608z"/>
		</g>
		<g>
			<path style="fill:#FFFFFF;" d="M1980.895,1303.896c0,0,4.053-1.603,15.456-0.679c0,0-0.605,4.448-9.016,4.889
				C1982.571,1308.354,1980.895,1303.896,1980.895,1303.896z"/>
		</g>
		<g>
			<path style="fill:#739AF0;" d="M2014.578,1362.336c0,0,8.432,26.691,37.389,32.765c0,0,47.819-14.732,24.01-47.31
				C2075.977,1347.791,2052.436,1330.299,2014.578,1362.336z"/>
		</g>
		<g>
			<path style="fill:#FFB27D;" d="M1783.84,1350.319c0,0-1.987-6.66-2.104-7.814c-0.116-1.155,0.024-1.733,1.051-0.925
				c1.028,0.809,2.587,2.945,2.125,4.967C1784.45,1348.567,1783.84,1350.319,1783.84,1350.319z"/>
		</g>
	</g>
	<g>
		<g>
			<path style="fill:#FFB27D;" d="M1505.961,1018.451c-7.979,4.321-18.585,4.315-24.548,6.204c-5.55,1.759-6.759,7.572-6.759,7.572
				l-3.539-12.412l-2.535-3.746c0,0,5.81-9.21,6.972-12.335c1.158-3.121,4.503-6.588,7.954-7.47
				c3.448-0.879,9.669-5.036,10.443-4.075c1.881,2.317-7.958,6.904-8.223,9.12c-0.239,2.003,1.209,2.511,1.491,2.589
				c0.02,0.002,0.035,0.01,0.055,0.012c8.602,2.7,29.013-5.439,30.611-0.535C1518.479,1005.21,1509.359,1016.611,1505.961,1018.451z
				"/>
		</g>
		<g>
			<path style="fill:#F77D48;" d="M1482.332,1026.794c0,0-36.357,89.329-77.84,95.904c-5.161,0.816-10.707-0.064-16.457-2.231
				c0,0,0,0-0.009-0.01c-18.762-7.081-39.729-27.882-56.81-48.149c-19.727-23.409-34.272-46.119-34.272-46.119
				s5.564-67.298,19.478-59.868c29.195,15.585,64.028,89.622,84.25,105.133l66.168-56.91
				C1466.84,1014.543,1477.189,1016.94,1482.332,1026.794z"/>
		</g>
		<g>
			<path style="fill:#D86036;" d="M1388.026,1120.457c-18.762-7.081-39.729-27.882-56.81-48.149
				c0.257-32.758,1.662-66.773,4.105-46.579C1339.564,1060.938,1387.283,1119.538,1388.026,1120.457z"/>
		</g>
		<g>
			<path style="fill:#182B49;" d="M1147.826,1626.609h-34.429c-4.334-2.252-8.195-7.406-9.415-15.094
				c-1.683-10.613-14.113-16.399-16.804-25.082c-2.684-8.675,11.092-20.891,11.092-20.891l2.305-2.843l2.397-2.95l22.851,5.149
				c0,0,0.565,5.208,0.909,11.841c0.249,4.784,0.379,10.313,0.099,15.164c-0.672,11.573,3.383,24.039,14.132,26.291
				C1148.909,1619.857,1148.556,1624.369,1147.826,1626.609z"/>
		</g>
		<g>
			<path style="fill:#182B49;" d="M1347.63,1626.609h-78.733c-3.787-4.421-2.391-20.736-1.818-26.064
				c0.118-1.072,0.199-1.698,0.199-1.698s26.886-20.576,30.579-4.821c0.112,0.495,0.249,0.978,0.398,1.455
				c4.652,14.736,25.522,21.434,37.573,23.299C1343.663,1619.995,1346.56,1623.892,1347.63,1626.609z"/>
		</g>
		<g>
			<path style="fill:#2B478B;" d="M1332.628,1206.112c0,0-4.081,48.734-8.88,107.317c-6.521,79.578-14.364,177.328-15.141,195.846
				c-1.342,32.155-6.723,83.591-6.723,83.591s-12.763,12.22-38.306,7.069c0,0-22.762-73.426-29.263-151.113
				c-0.101-1.273-0.201-2.557-0.303-3.839c-6.047-79.087-15.452-245.622-15.452-245.622L1332.628,1206.112z"/>
		</g>
		<g>
			<path style="fill:#233862;" d="M1332.628,1206.112c0,0-4.081,48.734-8.88,107.317l-89.432,135.393
				c-0.101-1.273-0.201-2.557-0.303-3.839c-6.047-79.087-15.452-245.622-15.452-245.622L1332.628,1206.112z"/>
		</g>
		<g>
			<path style="fill:#2B478B;" d="M1313.984,1211.899c0,0-73.584,176.499-121.97,259.444
				c-48.385,82.944-63.505,106.092-63.505,106.092s-27.721-10.61-30.24-17.844c0,0,18.503-160.128,50.904-199.163
				c18.31-22.057,39.816-88.249,40.824-111.397c1.009-23.147,6.553-68.96,6.553-68.96L1313.984,1211.899z"/>
		</g>
		<g>
			<path style="fill:#F77D48;" d="M1345.543,1181.15c-1.34,17.697-5.078,30.371-13.278,30.371c0,0-36.441,12.829-79.999,13.178
				c-8.513,0.064-20.58-1.598-30.581-3.269c-10.212-1.736-18.303-3.481-18.303-3.481c-8.752-2.02-18.422-7.429-17.127-17.412
				c0.688-5.316,1.185-12.14,1.524-20.047c0.027-0.506,0.046-1.02,0.074-1.533c0.661-16.118,0.798-36.486,0.854-57.674
				c0.018-9.22,0.027-18.597,0.064-27.845c0.046-8.815,0.101-17.513,0.229-25.843c0.128-9.394,0.33-18.338,0.671-26.484
				c0,0-8.009-54.734,1.532-64.634c11.186-11.59,43.88-22.188,67.738-21.278c49.747,0,59.279,11.379,68.004,20.599
				c3.013,3.178,15.024,22.665,15.355,44.063c0.45,29.837-0.717,63.725-0.717,63.734c0.313,4.849,0.836,11.093,1.405,18.229
				c0.605,7.594,1.286,16.181,1.854,25.135c0.285,4.509,0.542,9.109,0.763,13.711
				C1346.25,1154.877,1346.452,1169.166,1345.543,1181.15z"/>
		</g>
		<g>
			<path style="fill:#FFB27D;" d="M1282.207,962.607c-13.654,10.983-36.734,2.588-44.431-0.705
				c-1.539-0.658-2.481-2.205-2.393-3.877c0.436-8.236-0.323-18.685-3.929-30.89c-0.11-0.349,2.682-0.257,6.915,0.091
				c12.608,1.02,38.13,4.216,39.26,4.363c0.027-0.009,0.045-0.009,0.045-0.009s1.177,5.702,3.757,15.85
				c0.22,0.891,0.459,1.827,0.716,2.792c0.304,1.192,0.626,2.452,0.974,3.746c0.356,1.352,0.635,2.794,0.848,4.278
				C1284.206,959.906,1283.512,961.558,1282.207,962.607z"/>
		</g>
		<g>
			<path style="fill:#ED975D;" d="M1281.435,947.429c-17.528,6.941-48.739-15.732-48.739-15.732
				c1.757-1.777,3.661-3.262,5.675-4.473c12.608,1.022,38.132,4.219,39.261,4.361c0.025-0.004,0.043-0.006,0.043-0.006
				S1278.852,937.279,1281.435,947.429z"/>
		</g>
		<g>
			<g>
				<path style="fill:#FFB27D;" d="M1284.93,928.983c0,0-7.06,3.822-16.387,6.559c-13.638,4.01-32.119,5.7-40.448-10.269
					c-14.025-26.879-29.002-41.991-2.26-57.931c14.316-8.533,24.032-10.355,31.025-9.004c6.075,1.16,10.096,4.721,13.284,8.362
					C1277.01,874.535,1295.705,922.255,1284.93,928.983z"/>
			</g>
			<g>
				<path style="fill:#B5453C;" d="M1265.715,866.348c-6.393,4.88-15.579,7.613-18.721,9.625c-2.406,1.543-3.865,4.114-4.72,6.952
					c-1.506,4.969-1.176,10.745-0.891,13.16c0.45,3.81,0.44,7.071-9.542,6.28c-0.486-0.036-0.928-0.036-1.331,0
					c-0.937,0.074-1.635,0.331-2.131,0.744c-3.628,2.985,3.232,13.685,5.151,15.943c0,0,1.048,2.388,1.276,5.326
					c0.185,2.369-0.165,5.105-2.029,7.229c-0.026,0.026-0.056,0.063-0.083,0.091c-0.385,0.423-5.399,3.638-19.561-7.622
					c-2.323-1.837-4.886-4.069-7.714-6.768c-3.297-3.132-6.943-6.898-10.984-11.407c-4.517-5.032-9.937-17.099-6.134-30.094
					c3.783-12.986,18.945-30.683,39.894-33.888c16.576-2.535,18.664,2.897,32.85,2.732
					C1270.888,844.537,1276.735,857.935,1265.715,866.348z"/>
			</g>
			<g>
				<path style="fill:#FFFFFF;" d="M1282.347,910.64c0,0,1.158,3.582-6.931,7.817c0,0-6.79,3.557-8.673-0.009
					C1266.743,918.447,1271.606,912.156,1282.347,910.64z"/>
			</g>
		</g>
		<g>
			<path style="fill:#D86036;" d="M1222.447,1050.561c-0.432,0.836-22.949,44.018-33.74,70.723
				c0.018-9.22,0.027-18.597,0.064-27.845c0.046-8.815,0.101-17.513,0.229-25.843L1222.447,1050.561z"/>
		</g>
		<g>
			<g>
				<path style="fill:#FFB27D;" d="M1118.305,1199.228c0,0-5.485,7.307-5.703,10.226c-1.475,19.788,7.567,22.525-15.843,33.518
					c0,0-9.993,3.811-10.163-3.946s6.936-7.886,5.636-18.748c-1.499-12.528-1.348-12.646,6.876-19.188l5.445-9L1118.305,1199.228z"
					/>
			</g>
			<g>
				<path style="fill:#FFB27D;" d="M1109.652,1207.93c0,0,5.281,5.506,5.615,7.796c1.07,7.354,3.526,10.53,2.295,11.33
					c-2.558,1.663-5.943-3.782-7.561-8.667S1109.652,1207.93,1109.652,1207.93z"/>
			</g>
		</g>
		<g>
			<path style="fill:#F77D48;" d="M1102.874,1203.827c7.882,1.536,16.429,0.915,16.429,0.915s23.4-72.292,26.412-78.896
				c3.013-6.604,85.736-83.715,85.736-83.715s-7.283-82.137-27.168-74.567c-36.981,14.077-88.685,124.332-95.988,141.214
				c-12.068,27.896-16.257,90.44-16.257,90.44S1096.684,1202.621,1102.874,1203.827z"/>
		</g>
		<g>
			<g>
				<path style="fill:#060633;" d="M1223.438,919.741l-10.304,4.335c-2.323-1.837-4.886-4.069-7.714-6.768l12.224-8.881
					L1223.438,919.741z"/>
			</g>
			<g>
				<path style="fill:#AEC3FF;" d="M1282.581,899.501l-45.368,23.933c-1.684,0.888-3.564,1.359-5.545,1.392l-0.805,0.013
					c-2.877,0.047-5.831-1.98-7.428-5.099l-5.794-11.312c-1.98-3.865-2.021-8.272-0.107-11.323l0,0
					c0.693-1.107,1.622-1.979,2.721-2.559l46.713-24.642c3.665-1.934,8.668,0.285,11.119,4.932l6.702,12.703
					C1287.24,892.185,1286.245,897.567,1282.581,899.501z"/>
			</g>
			<g>
				<path style="fill:#060633;" d="M1296.347,892.241l-10.497,5.534l-6.519,3.441l-7.833,4.132l-19.876,10.48l-5.25,2.77
					c-3.136,1.658-7.061,0.445-8.721-2.696l-9.588-18.178c-1.654-3.143-0.442-7.067,2.697-8.721l23.49-12.393l10.882-5.741
					l7.272-3.833l8.327-4.396c1.457-0.767,3.08-0.917,4.57-0.538c1.724,0.427,3.262,1.56,4.152,3.24l9.588,18.177
					C1300.695,886.659,1299.482,890.583,1296.347,892.241z"/>
			</g>
			<g style="opacity:0.4;">
				<path style="fill:#4545AF;" d="M1254.251,876.611c-0.653,7.304-1.818,25.858-2.629,39.217l-5.25,2.77
					c-3.136,1.658-7.061,0.445-8.721-2.696l-9.588-18.178c-1.654-3.143-0.442-7.067,2.697-8.721L1254.251,876.611z"/>
			</g>
			<g style="opacity:0.8;">
				<polygon style="fill:#4545AF;" points="1272.405,867.037 1271.498,905.349 1261.046,910.863 1265.133,870.87 				"/>
			</g>
			<g>
				<path style="fill:#4545AF;" d="M1296.347,892.241l-10.497,5.534l-0.547-35.673c1.724,0.427,3.262,1.56,4.152,3.24l9.588,18.177
					C1300.695,886.659,1299.482,890.583,1296.347,892.241z"/>
			</g>
		</g>
	</g>
	<g>
		<g>
			<g>
				<path style="fill:#FFB27D;" d="M1489.711,778.07c-1.688,1.933-1.902,4.093-1.067,6.399c0.001,0.009,0.007,0.022,0.017,0.031
					c1.544,4.266,6.644,9.031,12.568,13.788c0.757,0.61,1.431,1.167,2.018,1.682c0.153,0.135,0.307,0.271,0.453,0.406
					c0.118,0.104,0.233,0.214,0.348,0.314c5.525,5.092,3.446,6.259,13.371,16.593c11.316,11.775,19.108,11.987,21.325,10.915
					c1.875-0.914-1.936-7.16-6.156-14.179c-0.205-0.338-0.406-0.682-0.615-1.024c-0.563-0.933-1.121-1.88-1.679-2.818
					c-4.948-8.448-3.677-12.412-2.505-24.983c0.954-10.217,15.895-57.076,15.895-57.076l-21.688-3.736
					c0,0-6.53,37.315-13.727,43.061c-3.849,3.064-8.155,3.102-11.854,5.372c-0.262,0.158-0.519,0.319-0.77,0.487
					C1493.543,774.694,1491.401,776.132,1489.711,778.07z"/>
			</g>
			<g>
				<path style="fill:#233862;" d="M1489.711,778.07c-1.688,1.933-1.902,4.093-1.067,6.399c0.001,0.009,0.007,0.022,0.017,0.031
					c1.89,4.263,6.863,9.003,12.59,13.744c0.747,0.621,1.407,1.191,1.996,1.726c0.153,0.135,0.307,0.271,0.453,0.406
					c0.118,0.104,0.233,0.214,0.348,0.314c5.525,5.092,3.446,6.259,13.371,16.593c11.316,11.775,19.108,11.987,21.325,10.915
					c1.875-0.914-1.936-7.16-6.156-14.179c-2.204-0.807-12.437-4.965-20.173-14.866c-6.567-8.378-11.026-19.059-15.494-25.616
					c-0.491-0.091-0.783-0.146-1.274-0.237C1493.543,774.694,1491.401,776.132,1489.711,778.07z"/>
			</g>
			<g>
				<path style="fill:#FFB27D;" d="M1664.587,764.524c1.339,6.694,10.882,5.577,21.543,2.973c10.661-2.605,8.128,0.492,23.3-1.188
					c15.174-1.679,19.771-7.337,20.233-9.593c0.414-2.001-7.083-2.708-15.125-3.635c-1.011-0.113-2.027-0.238-3.043-0.363
					c-9.079-1.139-15.729-6.998-23.976-11.81c-7.812-4.558-19.47-23.127-19.47-23.127l-20.808,1.648
					c0,0,10.919,16.586,15.143,23.797c2.483,4.241,2.352,9.85,2.043,14.18C1664.266,759.76,1664.113,762.166,1664.587,764.524z"/>
			</g>
			<g>
				<path style="fill:#233862;" d="M1686.13,767.497c10.661-2.605,8.128,0.492,23.3-1.188c15.174-1.679,19.771-7.337,20.233-9.593
					c0.414-2.001-7.083-2.708-15.125-3.635l-0.075,0.154c0,0-9.1,6.453-21.729,6.755c-10.294,0.251-21.197-2.699-28.306-2.584
					c-0.162,2.354-0.314,4.76,0.159,7.118C1665.926,771.219,1675.469,770.102,1686.13,767.497z"/>
			</g>
			<g>
				<path style="fill:#D86036;" d="M1584.843,631.469l-19.452,52.345l-25.396,68.345c0,0-6.892,0.666-13.491-1.232
					c-6.075-1.757-13.048-6.352-13.048-6.352s7.052-73.384,20.207-115.509c3.37-10.813,7.149-19.56,11.318-24.481
					C1565.373,580.482,1584.843,631.469,1584.843,631.469z"/>
			</g>
			<g>
				<path style="fill:#F77D48;" d="M1565.065,548.341c-11.072-3.572-39.964-0.056-71.301,5.616
					c-8.658,1.566-17.386-2.388-21.947-9.912l0,0l-78.864-6.157c0,0-26.024,57.711-11.777,94.483
					c2.095,5.404,6.69,8.777,13.782,8.891c0.004,0.004-0.003-0.003,0,0c0,0,47.656,0.066,62.897,0.066
					c39.221,0,83.004-26.959,88.668-28.093c9.271-1.854,12.979,16.688,22.251,36.156c9.271,19.468,87.145,86.218,87.145,86.218
					s11.968,0.119,16.913-1.735c5.316-1.994,7.263-4.584,7.263-4.584S1593.805,557.611,1565.065,548.341z"/>
			</g>
			<g>
				<path style="fill:#152949;" d="M1463.438,312.458c-5.856-3.486-11.565-4.019-15.064-3.919c-2.435,0.07-4.864-0.088-7.273-0.441
					c-30.099-4.414-48.226,39.306-49.287,52.517c-1.949,24.253-14.78,27.952-32.84,43.141c-36.21,30.455-25.592,65.846-5.792,78.995
					c11.881,7.891,32.82-0.001,32.82-0.001c0.296,0.208,57.269-31.849,85.352-47.311
					C1513.455,429.453,1480.353,322.527,1463.438,312.458z"/>
			</g>
			<g>
				<path style="fill:#FFB27D;" d="M1447.814,422.275c0.125,0.08-13.816,4.84-23.139,0.711c-8.77-3.875-15.414-18.304-15.283-18.311
					c3.99-0.185,8.369-3.672,11.742-26.558l1.699,0.61l28.563,10.277c0,0-2.07,9.165-3.408,17.891
					C1446.861,414.221,1446.255,421.239,1447.814,422.275z"/>
			</g>
			<g>
				<path style="fill:#ED975D;" d="M1451.396,389.004c0,0-1.141,4.945-2.804,14.183c-16.405-2.953-23.449-15.59-25.759-24.46
					L1451.396,389.004z"/>
			</g>
			<g>
				<path style="fill:#FFB27D;" d="M1455.649,398.101c0,0-39.078-5.245-35.438-29.53c3.641-24.286,1.05-41.319,26.154-38.997
					c25.104,2.322,28.552,12.314,29.308,20.716C1476.43,358.691,1465.908,398.839,1455.649,398.101z"/>
			</g>
			<g>
				<path style="fill:#152949;" d="M1474.25,336.977c0,0-25.017,21.558-42.032,23.296c-17.017,1.738-23.458-3.724-23.458-3.724
					s10.029-8.327,16.065-21.765c1.777-3.96,5.538-6.681,9.863-7.054C1446.839,326.681,1469.873,326.202,1474.25,336.977z"/>
			</g>
			<g>
				<path style="fill:#152949;" d="M1458.612,335.046c0,0,8.368,8.092,11.004,14.093c2.544,5.792,3.307,19.644,1.28,25.146
					c0,0,13.04-25.354,5.658-37.672C1468.727,323.551,1458.612,335.046,1458.612,335.046z"/>
			</g>
			<g>
				<path style="fill:#739AF0;" d="M1480.722,479.842c-1.182,79.104-0.325,62.574-8.978,70.081
					c-2.086,1.807-7.946,2.884-15.661,3.394c-24.256,1.609-66.896-2.387-68.517-6.87c-5.596-15.51-1.646-20.329-6.313-44.075
					c-0.486-2.525-1.089-5.26-1.796-8.236c-3.892-16.309-7.68-21.857,6.129-48.061c12.521-23.734,25.529-42.998,26.699-42.303
					c33.037,19.611,35.701,3.127,35.701,3.127S1481.301,441.257,1480.722,479.842z"/>
			</g>
			<g>
				<path style="fill:#F77D48;" d="M1565.391,683.813l-25.396,68.345c0,0-6.892,0.666-13.491-1.232
					c-6.075-1.757-13.048-6.352-13.048-6.352s7.052-73.384,20.207-115.509L1565.391,683.813z"/>
			</g>
			<g>
				<path style="fill:#739AF0;" d="M1447.988,406.895c0,0,33.993,5.763,37.985,20.399c3.99,14.636,17.131,103.474,17.131,103.474
					s-9.585,9.36-17.568,1.377c-7.983-7.982-25.124-83.118-25.124-83.118L1447.988,406.895z"/>
			</g>
			<g>
				<path style="fill:#5A7DE0;" d="M1456.083,553.317c-24.256,1.609-66.896-2.387-68.517-6.87
					c-5.596-15.51-1.646-20.329-6.313-44.075l11.7-32.944c0,0-1.935,36.686,8.885,46.335c10.807,9.649,44.295,18.626,49.554,26.688
					C1453.929,546.32,1455.597,550.2,1456.083,553.317z"/>
			</g>
			<g>
				<path style="fill:#FFB27D;" d="M1428.292,537.888c0,0,23.93-5.329,27.791-3.205c3.862,2.123,13.298,9.857,14.479,12.549
					c1.182,2.692-8.596-2.043-11.776-2.896c-2.06-0.553-7.481,1.331-10.165,2.226c-11.295,3.765-18.215,1.828-18.215,1.828
					L1428.292,537.888z"/>
			</g>
			<g>
				<path style="fill:#739AF0;" d="M1412.266,403.755c0,0-32.133,1.979-43.255,17.493c-15.658,21.839-46.72,114.912-28.919,127.324
					c20.048,13.978,91.241,3.658,91.241,3.658s2.369-11.074-0.927-16.431c-3.297-5.356-56.863-14.011-59.336-16.483
					c-2.472-2.473,30.904-48.21,30.904-55.627C1401.975,456.272,1412.266,403.755,1412.266,403.755z"/>
			</g>
			<g>
				<path style="fill:#FFB27D;" d="M1457.241,541.343c0,0,5.015,6.468,6.658,7.239c1.644,0.774,2.705,0.58,2.705,0.58l-3.378-6.082
					L1457.241,541.343z"/>
			</g>
			<g>
				<path style="fill:#FFB27D;" d="M1456.083,534.683l14.578,7.079c0,0-0.62,1.015-2.415,0.933
					c-1.795-0.081-6.323-1.738-6.323-1.738L1456.083,534.683z"/>
			</g>
		</g>
		<g>
			<g>
				<polygon style="fill:#152949;" points="1580.567,551.324 1428.292,551.324 1428.292,554.685 1579.215,554.685 				"/>
			</g>
			<g>
				<polygon style="fill:#152949;" points="1463.899,554.685 1579.215,554.685 1613.904,468.424 1498.767,468.424 				"/>
			</g>
			<g>
				<path style="fill:#EBF3FA;" d="M1550.105,511.554c0.87-3.032-0.884-5.49-3.916-5.49s-6.195,2.458-7.064,5.49
					c-0.87,3.032,0.883,5.491,3.916,5.491C1546.073,517.045,1549.236,514.586,1550.105,511.554z"/>
			</g>
		</g>
	</g>
	<g>
		<g>
			<g>
				<path style="fill:#FFB27D;" d="M2202.082,1098.836c-0.002-0.434,6.348-13.561,4.328-14.57c-2.02-1.009-5.637-0.855-6.059,1.443
					C2199.932,1088.008,2202.082,1098.836,2202.082,1098.836z"/>
			</g>
			<g>
				<path style="fill:#233862;" d="M2296.845,935.688c0,0,37.224-44.732,56.932-16.109c0,0,14.702,6.099,20.02,31.124
					c5.425,25.532-11.554,44.939-20.333,40.144c-5.63-3.075-9.893,6.777-9.893,6.777L2296.845,935.688z"/>
			</g>
			<g>
				<path style="fill:#FFB27D;" d="M2250.677,1173.719c-29.594-10.902-58.098-61.547-58.098-61.547l9.333-6.532
					c7.773,11.372,42.747,33.204,42.747,33.204c0.798-9.581,1.958-18.276,3.388-26.15c9.709-53.522,31.919-69.377,37.881-72.744
					c0.963-0.546,1.505-0.76,1.505-0.76s-0.02,0.394-0.066,1.141c-0.085,1.609-0.274,4.855-0.586,9.304
					C2284.468,1082.771,2275.405,1182.837,2250.677,1173.719z"/>
			</g>
			<g>
				<path style="fill:#233862;" d="M2349.709,915.042c0,0,5.006-20.019,34.409-13.763c0,0-14.076-1.773-17.935,3.649
					c0,0,11.157-5.109,18.143-0.835c6.986,4.276,8.134,18.665,7.091,23.044c-1.043,4.38-8.759,17.413-13.867,17.413
					c-5.109,0-11.157-4.483-11.157-4.483L2349.709,915.042z"/>
			</g>
			<g>
				<path style="fill:#FFB27D;" d="M2393.709,1228.37c-14.62-32.789-21.615-42.061-21.859-52.376
					c-0.193-8.158,3.828-16.961,11.643-38.545c1.84-5.086,3.11-10.316,3.892-15.603c6.18-41.61-17.882-86.593-32.837-89.657
					c-4.16-1.1-11.215-16.129-11.129-40.345l-1.872,0.368l-31.49,6.236c0,0,0.716,9.91,0.737,19.246
					c0.021,7.78-0.448,15.154-2.21,16.083c-2.268,0.205-3.605,0.341-3.605,0.341s-26.257,36.465-28.466,70.379
					c-2.208,33.915,21.027,48.648-0.175,116.421C2254.691,1290.137,2401.786,1246.487,2393.709,1228.37z"/>
			</g>
			<g>
				<path style="fill:#E8945B;" d="M2310.056,998.449c0,0,0.716,9.91,0.737,19.246c17.621-0.497,26.936-16.572,30.753-25.482
					L2310.056,998.449z"/>
			</g>
			<g>
				<path style="fill:#233862;" d="M2344.798,988.785c0,0,9.235-14.592,11.452-27.068c1.582-8.908-2.955-41.925-36.135-37.17
					c0,0-9.637,0.95-18.695,7.067c-7.203,4.866-17.6,15.369-5.975,44.182l3.019,9.732L2344.798,988.785z"/>
			</g>
			<g>
				<path style="fill:#FFB27D;" d="M2304.171,1007.289c0,0,41.691,0.688,41.721-25.282c0.028-25.971,5.429-43.373-21.188-44.91
					c-26.619-1.537-31.803,8.367-33.92,17.033C2288.665,962.796,2293.325,1006.441,2304.171,1007.289z"/>
			</g>
			<g>
				<path style="fill:#233862;" d="M2305.713,936.46c0,0,11.416,30.469,28.935,34.974c17.52,4.505,25.118-0.188,25.118-0.188
					s-13.438-10.675-16.227-29.309C2343.539,941.937,2314.324,921.959,2305.713,936.46z"/>
			</g>
			<g>
				<path style="fill:#233862;" d="M2308.543,938.934c0,0-8.525,6.803-10.604,13.416c-2.079,6.613-3.014,20.227-6.981,19.766
					c0,0-8.601-20.71,1.064-32.425C2302.271,927.268,2308.543,938.934,2308.543,938.934z"/>
			</g>
			<g>
				<path style="fill:#243F77;" d="M2356.792,1543c-10.488,41.727-26.279,73.716-26.279,73.716l-13.749-0.953
					c0,0,6.742-32.076,6.355-75.414c-0.272-30.299-4.02-66.107-15.992-100.296c-41.139-117.491-34.49-203-34.49-203l77.363,9.049
					l3.604,0.423c0.321,35.528,1.239,83.768,2.041,121.488c0.71,33.925,1.333,59.337,1.333,59.337
					C2371.852,1459.383,2366.45,1504.598,2356.792,1543z"/>
			</g>
			<g>
				<path style="fill:#FFB27D;" d="M2447.933,1263.196l-12.518,3.754c0,0-42.653-65.213-46.407-83.038
					c-1.225-5.803-4.031-11.951-6.366-33.722c-2.976-27.745-16.607-59.917-16.607-59.917l-3.081-13.348l-10.51-45.516
					c0,0,20.125,2.056,31.896,6.978c3.897,1.626,6.87,3.568,7.91,5.847c8.646,19.015,17.28,67.003,23.349,101.234
					c3.382,19.08,5.961,33.889,7.308,37.026C2426.66,1191.25,2438.131,1239.424,2447.933,1263.196z"/>
			</g>
			<g>
				<path style="fill:#2B478B;" d="M2396.932,1524.972c-6.088,47.29-13.541,82.375-13.541,82.375l-12.816,11.937
					c0,0-6.217-33.446-10.615-73.238c-4.191-37.821-9.938-77.843-16.436-90.059c-25.799-48.446-33.566-231.335-33.566-231.335
					l78.438-3.891c7.889,13.262,11.328,35.013,12.145,59.745c2.063,62.418-11.019,127.744-13.211,139.516
					C2387.328,1420.029,2407.074,1446.185,2396.932,1524.972z"/>
			</g>
			<g>
				<path style="fill:#233862;" d="M2306.959,939.963c0,0,8.133,31.906,30.238,42.125c0,0-22.105-19.602-23.982-40.665
					C2311.338,920.361,2306.959,939.963,2306.959,939.963z"/>
			</g>
			<g>
				<path style="fill:#739AF0;" d="M2403.541,1252.041c0.136,2.645-0.008,4.757-0.487,6.27c-1.669,5.251-7.401,7.644-21.257,6.212
					c-8.469-0.882-12.245-15.074-13.929-27.183c-5.087,17.323-12.208,27.046-21.414,29.088
					c-13.434,2.987-81.196,11.227-85.632-20.984c-4.878-35.43,9.73-98.162,10.533-131.985c-1.992-11.993-2.673-22.403-2.457-31.345
					c0.565-24.095,7.637-37.6,13.074-43.038c1.541-1.182,3.081-1.92,9.264-2.979c3.16-0.538,7.537-1.16,13.741-1.977
					c0,0,2.532-0.286,2.474-0.192c-1.146,2.048-7.414,11.875-6.051,20.74c3.557,23.116,33.998,4.119,38.28,1.363
					c13.775-8.864,21.604-23.445,21.604-23.445s19.272,2.106,28.702,8.963c0,0-0.037,0.042-0.102,0.121
					c1.14,0.817,1.992,1.684,2.479,2.608c10.059,19.151,20.104,67.482,27.167,101.958c-17.123,9.436-32.083,6.627-36.725,5.381
					C2388.875,1191.322,2402.638,1233.951,2403.541,1252.041z"/>
			</g>
			<g>
				<path style="fill:#FFB27D;" d="M2201.912,1105.64c0.006-1.288,1.08-19.911-2.235-23.824c-3.314-3.911-10.084-9.475-12.213-9.304
					c-2.129,0.172-10.454,11.234-7.951,19.712s13.066,19.948,13.066,19.948L2201.912,1105.64z"/>
			</g>
			<g>
				<g>
					<path style="fill:#2B478B;" d="M2212.553,1083.538l-19.122,5.732c-0.688,0.205-1.415-0.186-1.621-0.874l-12.782-42.645
						c-0.207-0.689,0.186-1.415,0.874-1.622l19.123-5.731c0.688-0.206,1.414,0.185,1.621,0.874l12.782,42.644
						C2213.633,1082.605,2213.242,1083.331,2212.553,1083.538z"/>
				</g>
				<g>
					<path style="fill:#233862;" d="M2209.653,1084.408l-17.193,5.153c-1.222,0.365-2.51-0.328-2.876-1.55l-12.203-40.716
						c-0.366-1.222,0.327-2.509,1.549-2.875l17.193-5.153c1.223-0.366,2.51,0.327,2.877,1.549l12.202,40.716
						C2211.568,1082.754,2210.875,1084.041,2209.653,1084.408z"/>
				</g>
			</g>
			<g>
				<path style="fill:#5A7DE0;" d="M2403.541,1252.041c-9.308-3.109-21.25-11.377-35.594-29.912
					c-37.972-49.077-3.224-106.751,1.433-107.825c4.657-1.075,13.427,37.313,13.427,37.313
					C2388.875,1191.322,2402.638,1233.951,2403.541,1252.041z"/>
			</g>
			<g>
				<path style="fill:#739AF0;" d="M2281.973,1039.075c0,0-23.673,11.982-32.334,64.787c0,0,8.517,11.674,20.513,15.118
					c1.713,0.492,3.498,0.816,5.339,0.915C2290.22,1120.68,2281.973,1039.075,2281.973,1039.075z"/>
			</g>
			<g>
				<path style="fill:#FFB27D;" d="M2185.473,1073.941c0,0,8.036-12.365,10-11.678c2.804,0.982-7.286,16.674-7.286,16.674
					s7.478-11.726,8.644-10.845c2.662,2.009-1.574,9.377-5.774,15.024c0,0,7.519-6.885,7.763-5.645
					c0.858,4.343-8.254,14.867-8.254,14.867l-5.092-11.632V1073.941z"/>
			</g>
			<g>
				<path style="fill:#FFB27D;" d="M2179.444,1085.422c0.389-1.512,2.351-31.041,3.19-28.239c0.84,2.801,2.838,18.284,2.838,18.284
					L2179.444,1085.422z"/>
			</g>
			<g>
				<path style="fill:#FFFFFF;" d="M2312.314,991.872c0,0-0.72,3.062-8.334,2.589c0,0-6.392-0.394-6.197-3.758
					C2297.783,990.703,2303.982,988.309,2312.314,991.872z"/>
			</g>
			<g>
				<path style="fill:#152F54;" d="M2280.325,1626.651h66.421c0,0,2.482-10.876-1.878-18.278c-3.86-6.549-3.885-10.47-3.077-18.177
					c-3.009,1.266-18.211,2.004-21.279,0.174c0,7.729-11.33,18.491-15.154,21.313
					C2301.018,1614.886,2281.662,1613.745,2280.325,1626.651z"/>
			</g>
			<g>
				<path style="fill:#1D3868;" d="M2326.016,1626.651h66.419c0,0,2.483-10.876-1.876-18.278
					c-3.861-6.549-4.665-10.296-3.857-18.003c-3.009,1.264-17.432,1.83-20.501,0c0,7.729-11.328,18.491-15.153,21.313
					C2346.706,1614.886,2327.352,1613.745,2326.016,1626.651z"/>
			</g>
		</g>
		<g>
			<path style="fill:#FFB27D;" d="M2447.933,1263.196c0,0,15.1,10.039,17.409,14.27c2.307,4.231,7.693,19.811,7.693,19.811
				s-3.848,0.578-7.693-6.154c-3.848-6.731-16.542-6.155-20.773-9.81c-4.23-3.653-9.153-14.362-9.153-14.362L2447.933,1263.196z"/>
		</g>
		<g>
			<path style="fill:#FFB27D;" d="M2437.057,1270.262c0,0,2.512,11.82,5.588,15.283c3.078,3.461,7.311,9.231,9.041,7.693
				c1.73-1.539-1.924-14.426-1.924-14.426L2437.057,1270.262z"/>
		</g>
		<g>
			<path style="fill:#FFB27D;" d="M2463.226,1278.813c0.385,0.577,13.655,14.681,13.655,14.681s-4.809,2.179-6.154,0
				C2469.38,1291.314,2463.226,1278.813,2463.226,1278.813z"/>
		</g>
	</g>
	<g>
		<path style="fill:#233862;" d="M2614.496,1633.242H146.757c-1.55,0-2.817-1.269-2.817-2.818v-0.997
			c0-1.55,1.268-2.817,2.817-2.817h2467.739c1.549,0,2.817,1.268,2.817,2.817v0.997
			C2617.313,1631.974,2616.045,1633.242,2614.496,1633.242z"/>
	</g>
	<g>
		<path style="fill:#F77D48;" d="M914.426,1133.3c-0.844,0-1.631-0.534-1.913-1.38c-1.465-4.398-2.815-8.743-4.019-12.914
			c-0.309-1.071,0.31-2.188,1.38-2.497c1.069-0.308,2.188,0.311,2.496,1.38c1.186,4.119,2.522,8.411,3.97,12.757
			c0.352,1.057-0.221,2.199-1.276,2.551C914.852,1133.267,914.637,1133.3,914.426,1133.3z M907.021,1107.462
			c-0.916,0-1.743-0.627-1.963-1.557c-1.067-4.55-1.977-9.022-2.706-13.292c-0.186-1.098,0.552-2.141,1.65-2.327
			c1.1-0.18,2.139,0.553,2.327,1.649c0.713,4.188,1.606,8.578,2.656,13.048c0.255,1.085-0.417,2.17-1.503,2.425
			C907.328,1107.444,907.174,1107.462,907.021,1107.462z M1015.446,1099.424c-0.061,0-0.123-0.002-0.185-0.009
			c-4.393-0.397-8.951-1.189-13.547-2.351c-1.08-0.271-1.734-1.369-1.461-2.448c0.273-1.08,1.369-1.737,2.448-1.461
			c4.392,1.109,8.74,1.864,12.924,2.244c1.108,0.101,1.927,1.081,1.825,2.19C1017.356,1098.637,1016.477,1099.424,1015.446,1099.424
			z M1028.862,1099.384c-1.022,0-1.897-0.773-2.005-1.812c-0.114-1.107,0.692-2.098,1.801-2.212
			c4.369-0.448,8.637-1.36,12.685-2.713c1.057-0.353,2.199,0.218,2.552,1.274c0.353,1.056-0.218,2.198-1.273,2.551
			c-4.329,1.445-8.889,2.423-13.552,2.9C1028.999,1099.38,1028.93,1099.384,1028.862,1099.384z M1733.043,1093.271
			c-0.571,0-1.14-0.241-1.538-0.712c-0.721-0.85-0.617-2.121,0.232-2.842c3.318-2.816,6.418-5.942,9.211-9.29
			c0.714-0.855,1.985-0.972,2.84-0.256c0.855,0.713,0.971,1.984,0.256,2.84c-2.94,3.524-6.203,6.815-9.697,9.78
			C1733.969,1093.113,1733.504,1093.271,1733.043,1093.271z M989.418,1092.989c-0.245,0-0.493-0.045-0.736-0.139
			c-4.107-1.611-8.289-3.514-12.432-5.657c-0.989-0.512-1.375-1.729-0.864-2.718c0.512-0.988,1.728-1.377,2.718-0.864
			c4.018,2.079,8.073,3.925,12.051,5.483c1.037,0.407,1.548,1.577,1.142,2.614C990.983,1092.504,990.224,1092.989,989.418,1092.989z
			 M1054.147,1090.926c-0.681,0-1.346-0.345-1.725-0.97c-0.579-0.953-0.275-2.192,0.677-2.771c3.456-2.098,6.813-4.618,9.98-7.491
			l0.379-0.348l2.75,2.951l-0.418,0.383c-3.358,3.046-6.923,5.722-10.598,7.953
			C1054.866,1090.832,1054.505,1090.926,1054.147,1090.926z M902.581,1080.966c-1.031,0-1.911-0.788-2.005-1.835
			c-0.381-4.204-0.573-8.316-0.573-12.22c0-0.474,0.002-0.943,0.008-1.41c0.014-1.105,0.914-1.993,2.016-1.993
			c0.009,0,0.017,0,0.024,0c1.114,0.013,2.006,0.927,1.993,2.04c-0.006,0.452-0.009,0.905-0.009,1.363
			c0,3.783,0.188,7.772,0.557,11.856c0.101,1.109-0.717,2.09-1.826,2.189C902.703,1080.963,902.643,1080.966,902.581,1080.966z
			 M965.521,1080.692c-0.37,0-0.747-0.103-1.083-0.316c-5.442-3.479-9.329-6.444-11.162-7.902c-0.872-0.693-1.017-1.962-0.322-2.833
			c0.693-0.872,1.962-1.017,2.833-0.322c1.771,1.409,5.534,4.278,10.823,7.657c0.938,0.601,1.214,1.848,0.613,2.785
			C966.839,1080.364,966.188,1080.692,965.521,1080.692z M1750.203,1072.742c-0.347,0-0.697-0.089-1.018-0.275
			c-0.961-0.563-1.284-1.797-0.723-2.76c2.173-3.717,4.091-7.689,5.702-11.808c0.406-1.038,1.574-1.548,2.612-1.143
			c1.037,0.405,1.549,1.575,1.144,2.612c-1.688,4.313-3.698,8.476-5.976,12.374
			C1751.57,1072.385,1750.895,1072.742,1750.203,1072.742z M1073.56,1072.64c-0.376,0-0.755-0.104-1.094-0.323
			c-0.936-0.604-1.203-1.853-0.6-2.787c2.42-3.743,4.105-7.659,5.012-11.637c0.246-1.087,1.326-1.765,2.413-1.52
			c1.086,0.248,1.767,1.329,1.519,2.414c-1.01,4.44-2.88,8.79-5.556,12.931C1074.868,1072.314,1074.221,1072.64,1073.56,1072.64z
			 M945.377,1063.006c-0.572,0-1.14-0.241-1.538-0.711c-2.849-3.354-5.72-6.9-8.535-10.542c-0.681-0.881-0.518-2.147,0.361-2.829
			c0.882-0.682,2.148-0.52,2.83,0.362c2.776,3.593,5.609,7.091,8.417,10.397c0.722,0.85,0.618,2.121-0.231,2.843
			C946.302,1062.848,945.837,1063.006,945.377,1063.006z M903.047,1054.157c-0.1,0-0.197-0.007-0.297-0.021
			c-1.102-0.162-1.863-1.187-1.701-2.288c0.693-4.718,1.747-9.227,3.133-13.4c0.352-1.057,1.492-1.629,2.551-1.277
			c1.056,0.352,1.629,1.492,1.277,2.55c-1.313,3.951-2.313,8.229-2.972,12.714C904.892,1053.436,904.029,1054.157,903.047,1054.157z
			 M1760.021,1047.824c-0.152,0-0.307-0.017-0.462-0.054c-1.084-0.255-1.757-1.34-1.503-2.424c0.985-4.198,1.709-8.569,2.152-12.991
			c0.112-1.108,1.109-1.92,2.207-1.806c1.108,0.11,1.917,1.099,1.806,2.208c-0.46,4.596-1.212,9.142-2.238,13.511
			C1761.766,1047.197,1760.938,1047.824,1760.021,1047.824z M1079.213,1047.013c-0.969,0-1.822-0.699-1.986-1.687
			c-0.668-4.013-2.075-8.054-4.187-12.011c-0.524-0.981-0.152-2.204,0.83-2.728c0.982-0.525,2.205-0.152,2.729,0.83
			c2.316,4.343,3.866,8.8,4.605,13.247c0.182,1.099-0.561,2.138-1.658,2.32C1079.434,1047.004,1079.322,1047.013,1079.213,1047.013z
			 M928.902,1041.707c-0.633,0-1.257-0.298-1.649-0.854c-2.61-3.699-5.154-7.481-7.562-11.242c-0.601-0.938-0.327-2.185,0.61-2.785
			c0.938-0.601,2.185-0.328,2.786,0.61c2.375,3.71,4.886,7.442,7.461,11.092c0.643,0.91,0.425,2.168-0.485,2.811
			C929.71,1041.586,929.305,1041.707,928.902,1041.707z M911.625,1028.896c-0.351,0-0.706-0.091-1.029-0.282
			c-0.957-0.569-1.273-1.808-0.703-2.764c1.414-2.382,2.995-4.663,4.726-6.823c-0.764,0.088-1.552-0.284-1.964-1
			c-2.276-3.961-4.449-7.973-6.454-11.924c-0.505-0.992-0.108-2.207,0.885-2.711c0.993-0.506,2.208-0.107,2.711,0.886
			c1.975,3.888,4.112,7.839,6.356,11.738c0.159,0.277,0.246,0.576,0.265,0.874c0.617-0.699,1.251-1.385,1.9-2.055
			c0.774-0.799,2.052-0.818,2.852-0.043c0.8,0.775,0.818,2.053,0.043,2.851c-3.002,3.096-5.643,6.55-7.85,10.265
			C912.983,1028.545,912.313,1028.896,911.625,1028.896z M1067.066,1023.444c-0.554,0-1.104-0.227-1.502-0.671
			c-2.785-3.105-6.016-6.083-9.604-8.848c-0.882-0.681-1.045-1.947-0.365-2.83c0.68-0.881,1.947-1.043,2.828-0.365
			c3.781,2.916,7.194,6.061,10.143,9.351c0.743,0.828,0.675,2.104-0.155,2.847
			C1068.026,1023.273,1067.545,1023.444,1067.066,1023.444z M1762.738,1021.146c-1.095,0-1.993-0.875-2.015-1.975
			c-0.09-4.348-0.433-8.775-1.021-13.162c-0.147-1.104,0.627-2.119,1.731-2.268c1.094-0.144,2.117,0.627,2.267,1.731
			c0.608,4.536,0.964,9.117,1.056,13.615c0.021,1.114-0.862,2.035-1.976,2.058
			C1762.766,1021.146,1762.752,1021.146,1762.738,1021.146z M930.107,1009.727c-0.655,0-1.297-0.317-1.686-0.905
			c-0.612-0.929-0.357-2.18,0.571-2.794c3.671-2.425,7.755-4.616,12.138-6.512c1.021-0.443,2.21,0.026,2.651,1.05
			c0.442,1.023-0.027,2.209-1.05,2.651c-4.167,1.802-8.041,3.88-11.516,6.176C930.875,1009.619,930.488,1009.727,930.107,1009.727z
			 M1045.955,1006.981c-0.332,0-0.668-0.082-0.979-0.255c-3.763-2.093-7.771-3.984-11.914-5.62
			c-1.035-0.409-1.543-1.581-1.133-2.617c0.408-1.036,1.581-1.544,2.615-1.134c4.306,1.701,8.475,3.668,12.392,5.846
			c0.974,0.542,1.324,1.77,0.782,2.743C1047.351,1006.607,1046.664,1006.981,1045.955,1006.981z M954.601,998.922
			c-0.88,0-1.688-0.581-1.94-1.469c-0.303-1.071,0.32-2.187,1.392-2.489c4.145-1.172,8.619-2.191,13.299-3.029
			c1.092-0.197,2.143,0.532,2.341,1.629c0.196,1.096-0.533,2.145-1.63,2.34c-4.551,0.816-8.894,1.806-12.912,2.941
			C954.967,998.898,954.782,998.922,954.601,998.922z M1021.027,997.086c-0.167,0-0.338-0.02-0.508-0.065
			c-4.239-1.101-8.595-1.96-12.949-2.554c-1.104-0.15-1.877-1.167-1.727-2.271c0.151-1.102,1.166-1.878,2.271-1.726
			c4.511,0.614,9.025,1.505,13.419,2.646c1.077,0.279,1.724,1.381,1.444,2.459C1022.742,996.484,1021.924,997.086,1021.027,997.086z
			 M902.249,995.047c-0.776,0-1.517-0.451-1.849-1.209c-1.841-4.207-3.54-8.449-5.049-12.605c-0.38-1.047,0.16-2.204,1.206-2.584
			c1.044-0.381,2.204,0.159,2.584,1.207c1.48,4.076,3.148,8.237,4.954,12.365c0.447,1.021-0.019,2.209-1.038,2.656
			C902.793,994.992,902.519,995.047,902.249,995.047z M1759.192,994.563c-0.905,0-1.729-0.616-1.956-1.535
			c-1.05-4.261-2.343-8.518-3.84-12.649c-0.381-1.047,0.159-2.203,1.207-2.583c1.046-0.381,2.203,0.16,2.583,1.208
			c1.547,4.266,2.882,8.66,3.967,13.06c0.266,1.082-0.395,2.175-1.477,2.44C1759.517,994.544,1759.353,994.563,1759.192,994.563z
			 M981.021,994.065c-1.113,0-2.016-0.903-2.016-2.017c0-1.024,0.763-1.87,1.752-2l0.033-0.004c0.008-0.001,0.018-0.002,0.026-0.003
			l0.009-0.001c3.942-0.418,7.962-0.616,11.973-0.621c0.559,0,1.119,0.004,1.679,0.014c1.113,0.018,2.002,0.937,1.983,2.05
			c-0.018,1.102-0.918,1.983-2.016,1.983c-0.012,0-0.022-0.001-0.034-0.001c-0.587-0.01-1.176-0.013-1.762-0.013
			c-3.793,0-7.606,0.2-11.34,0.593L981.021,994.065z M1422.925,971.063c-1.11,0-2.012-0.897-2.017-2.009
			c-0.005-1.113,0.895-2.019,2.009-2.025c3.9-0.015,8.132-0.496,12.936-1.469c1.094-0.219,2.154,0.486,2.376,1.576
			c0.221,1.092-0.484,2.156-1.576,2.377c-5.064,1.025-9.552,1.532-13.72,1.55C1422.93,971.063,1422.928,971.063,1422.925,971.063z
			 M893.102,969.768c-0.879,0-1.688-0.579-1.938-1.467c-1.258-4.428-2.333-8.878-3.195-13.227c-0.217-1.093,0.492-2.153,1.585-2.371
			c1.093-0.215,2.153,0.493,2.37,1.586c0.843,4.242,1.893,8.585,3.119,12.91c0.305,1.071-0.317,2.188-1.389,2.49
			C893.47,969.742,893.285,969.768,893.102,969.768z M1750.049,969.34c-0.748,0-1.466-0.416-1.815-1.133
			c-1.935-3.961-4.099-7.846-6.434-11.544c-0.594-0.941-0.313-2.188,0.629-2.781c0.94-0.596,2.187-0.313,2.781,0.629
			c2.413,3.822,4.649,7.835,6.647,11.927c0.489,1.001,0.074,2.209-0.927,2.697C1750.646,969.273,1750.345,969.34,1750.049,969.34z
			 M1409.727,968.93c-0.232,0-0.47-0.04-0.701-0.127c-4.015-1.488-7.661-3.769-10.839-6.779c-0.349-0.33-0.688-0.66-1.023-0.992
			c-0.792-0.784-0.797-2.061-0.012-2.852c0.784-0.791,2.062-0.797,2.851-0.012c0.313,0.309,0.632,0.618,0.957,0.927
			c2.821,2.671,5.918,4.61,9.47,5.928c1.044,0.388,1.576,1.547,1.188,2.592C1411.316,968.427,1410.545,968.93,1409.727,968.93z
			 M1449.249,966.15c-0.86,0-1.656-0.555-1.925-1.418c-0.33-1.064,0.264-2.194,1.326-2.524c3.829-1.191,7.954-2.61,12.611-4.338
			c1.044-0.39,2.205,0.144,2.592,1.188c0.389,1.044-0.145,2.205-1.188,2.592c-4.726,1.754-8.919,3.196-12.816,4.408
			C1449.649,966.12,1449.447,966.15,1449.249,966.15z M1474.498,956.908c-0.798,0-1.555-0.479-1.871-1.265
			c-0.416-1.033,0.085-2.207,1.118-2.623c4.418-1.779,8.958-3.659,12.42-5.097c1.026-0.429,2.208,0.059,2.636,1.089
			c0.428,1.027-0.061,2.208-1.089,2.636c-3.471,1.441-8.024,3.327-12.461,5.113C1475.004,956.861,1474.749,956.908,1474.498,956.908
			z M1390.418,951.002c-0.71,0-1.398-0.377-1.767-1.043c-2.28-4.128-3.797-8.463-4.637-13.253c-0.192-1.097,0.54-2.143,1.639-2.335
			c1.092-0.188,2.142,0.541,2.334,1.639c0.762,4.343,2.134,8.267,4.194,12c0.538,0.975,0.185,2.201-0.79,2.74
			C1391.082,950.921,1390.749,951.002,1390.418,951.002z M1735.713,946.663c-0.591,0-1.176-0.259-1.574-0.757
			c-2.762-3.446-5.732-6.743-8.833-9.798c-0.794-0.783-0.803-2.06-0.021-2.852c0.782-0.794,2.058-0.804,2.853-0.021
			c3.211,3.166,6.29,6.581,9.148,10.15c0.696,0.868,0.556,2.138-0.313,2.834C1736.601,946.518,1736.156,946.663,1735.713,946.663z
			 M1499.353,946.629c-0.79,0-1.54-0.467-1.862-1.242c-0.429-1.029,0.059-2.209,1.088-2.637c4.045-1.683,8.193-3.4,12.444-5.133
			c1.03-0.421,2.209,0.076,2.629,1.107c0.42,1.031-0.075,2.208-1.106,2.629c-4.242,1.728-8.382,3.441-12.418,5.12
			C1499.873,946.579,1499.611,946.629,1499.353,946.629z M887.916,943.412c-1.018,0-1.893-0.77-2.003-1.805
			c-0.484-4.577-0.741-9.158-0.764-13.615c-0.006-1.113,0.893-2.021,2.006-2.027c0.003,0,0.007,0,0.011,0
			c1.108,0,2.011,0.897,2.016,2.006c0.023,4.323,0.273,8.769,0.742,13.213c0.117,1.107-0.687,2.101-1.793,2.217
			C888.058,943.409,887.987,943.412,887.916,943.412z M1524.269,936.505c-0.806,0-1.566-0.484-1.878-1.28
			c-0.407-1.036,0.104-2.207,1.141-2.613c4.381-1.72,8.501-3.295,12.594-4.815c1.044-0.39,2.205,0.144,2.593,1.188
			c0.389,1.044-0.144,2.205-1.188,2.593c-4.071,1.514-8.167,3.079-12.526,4.789C1524.764,936.46,1524.513,936.505,1524.269,936.505z
			 M1716.604,927.856c-0.43,0-0.863-0.137-1.229-0.42c-3.482-2.683-7.156-5.163-10.921-7.373c-0.959-0.565-1.28-1.801-0.717-2.762
			c0.563-0.958,1.799-1.279,2.76-0.718c3.909,2.296,7.725,4.872,11.34,7.657c0.882,0.681,1.048,1.946,0.366,2.829
			C1717.806,927.585,1717.209,927.856,1716.604,927.856z M1549.48,927.151c-0.835,0-1.614-0.522-1.904-1.356
			c-0.366-1.052,0.191-2.201,1.243-2.566c4.312-1.496,8.617-2.934,12.802-4.271c1.059-0.339,2.194,0.245,2.534,1.307
			c0.339,1.061-0.246,2.196-1.307,2.535c-4.152,1.326-8.427,2.753-12.707,4.238C1549.922,927.115,1549.699,927.151,1549.48,927.151z
			 M1385.42,924.981c-0.045,0-0.089-0.001-0.133-0.004c-1.111-0.072-1.954-1.031-1.882-2.143c0.263-4.046,0.863-8.48,1.836-13.558
			c0.21-1.094,1.278-1.808,2.359-1.602c1.095,0.211,1.812,1.268,1.602,2.361c-0.941,4.91-1.521,9.183-1.772,13.058
			C1387.361,924.161,1386.474,924.981,1385.42,924.981z M1575.096,918.979c-0.875,0-1.681-0.574-1.937-1.456
			c-0.31-1.07,0.307-2.189,1.377-2.498c4.351-1.259,8.733-2.455,13.028-3.559c1.077-0.276,2.178,0.373,2.454,1.452
			c0.277,1.078-0.373,2.178-1.452,2.454c-4.253,1.093-8.598,2.279-12.909,3.526C1575.47,918.953,1575.281,918.979,1575.096,918.979z
			 M887.821,916.578c-0.069,0-0.14-0.004-0.211-0.011c-1.107-0.116-1.912-1.108-1.796-2.216c0.475-4.549,1.212-9.089,2.192-13.492
			c0.242-1.087,1.318-1.771,2.407-1.53c1.088,0.242,1.772,1.32,1.529,2.407c-0.946,4.254-1.66,8.638-2.118,13.034
			C889.717,915.807,888.842,916.578,887.821,916.578z M1693.483,914.293c-0.264,0-0.531-0.052-0.79-0.162
			c-4.015-1.713-8.191-3.19-12.418-4.391c-1.071-0.304-1.692-1.42-1.389-2.491c0.304-1.07,1.419-1.694,2.49-1.389
			c4.391,1.247,8.729,2.781,12.899,4.56c1.024,0.438,1.5,1.622,1.063,2.646C1695.013,913.833,1694.268,914.293,1693.483,914.293z
			 M1601.137,912.302c-0.924,0-1.757-0.64-1.967-1.579c-0.241-1.087,0.443-2.165,1.531-2.407c4.404-0.98,8.857-1.895,13.236-2.714
			c1.088-0.203,2.146,0.517,2.352,1.612c0.205,1.094-0.516,2.146-1.611,2.352c-4.332,0.812-8.739,1.715-13.1,2.687
			C1601.431,912.286,1601.282,912.302,1601.137,912.302z M1627.558,907.36c-0.979,0-1.841-0.716-1.991-1.716
			c-0.166-1.101,0.591-2.128,1.692-2.294c0.99-0.149,1.983-0.295,2.98-0.438c3.53-0.503,7.077-0.873,10.54-1.103
			c1.094-0.079,2.071,0.767,2.146,1.879c0.073,1.11-0.768,2.072-1.878,2.146c-3.363,0.223-6.807,0.582-10.24,1.071
			c-0.983,0.14-1.967,0.284-2.945,0.432C1627.76,907.354,1627.658,907.36,1627.558,907.36z M1667.714,906.949
			c-0.104,0-0.208-0.009-0.313-0.025c-4.279-0.667-8.697-1.096-13.134-1.273c-1.112-0.044-1.979-0.982-1.934-2.096
			c0.045-1.113,1.007-1.969,2.096-1.934c4.589,0.184,9.162,0.627,13.592,1.318c1.102,0.172,1.854,1.203,1.684,2.303
			C1669.549,906.237,1668.69,906.949,1667.714,906.949z M1390.16,898.558c-0.16,0-0.323-0.02-0.486-0.059
			c-1.081-0.268-1.74-1.362-1.473-2.442c1.069-4.316,2.287-8.954,3.361-13.045c0.283-1.078,1.387-1.719,2.463-1.439
			c1.077,0.282,1.722,1.386,1.438,2.462c-1.071,4.079-2.285,8.703-3.348,12.99C1391.889,897.943,1391.065,898.558,1390.16,898.558z
			 M893.665,890.394c-0.221,0-0.445-0.036-0.667-0.114c-1.051-0.368-1.604-1.518-1.236-2.569c1.493-4.264,3.266-8.507,5.265-12.614
			c0.487-1.001,1.694-1.416,2.696-0.931c1,0.487,1.417,1.694,0.93,2.695c-1.931,3.968-3.642,8.066-5.084,12.183
			C895.276,889.874,894.498,890.394,893.665,890.394z M1396.888,872.526c-0.164,0-0.33-0.02-0.496-0.061
			c-1.079-0.273-1.732-1.37-1.46-2.45c1.189-4.705,2.22-8.965,3.147-13.022c0.248-1.087,1.327-1.765,2.416-1.517
			c1.085,0.248,1.764,1.33,1.516,2.415c-0.936,4.088-1.972,8.377-3.17,13.112C1398.61,871.918,1397.789,872.526,1396.888,872.526z
			 M905.381,866.261c-0.369,0-0.74-0.1-1.074-0.31c-0.942-0.595-1.225-1.84-0.63-2.782c0.5-0.794,1.012-1.586,1.537-2.378
			c2.052-3.1,4.19-6.049,6.355-8.766c0.693-0.87,1.964-1.014,2.833-0.32c0.872,0.694,1.015,1.964,0.32,2.834
			c-2.092,2.623-4.16,5.476-6.147,8.478c-0.508,0.768-1.004,1.534-1.488,2.304C906.704,865.928,906.049,866.261,905.381,866.261z
			 M1402.848,846.313c-0.129,0-0.259-0.013-0.391-0.037c-1.093-0.214-1.805-1.274-1.591-2.367c0.867-4.418,1.655-8.848,2.343-13.163
			c0.174-1.101,1.205-1.852,2.308-1.674c1.1,0.175,1.85,1.208,1.675,2.309c-0.694,4.362-1.49,8.839-2.367,13.305
			C1404.636,845.648,1403.793,846.313,1402.848,846.313z M922.203,845.387c-0.535,0-1.069-0.212-1.467-0.633
			c-0.766-0.809-0.729-2.085,0.081-2.85c3.436-3.246,7.062-6.131,10.778-8.575c0.931-0.61,2.181-0.352,2.792,0.577
			c0.612,0.931,0.354,2.182-0.577,2.793c-3.519,2.314-6.959,5.053-10.223,8.136C923.198,845.203,922.7,845.387,922.203,845.387z
			 M1064.002,837.473c-0.003,0-0.006,0-0.009,0c-4.299-0.016-8.749-0.264-13.608-0.756c-1.108-0.113-1.915-1.102-1.803-2.21
			c0.112-1.109,1.104-1.916,2.209-1.803c4.728,0.479,9.051,0.72,13.218,0.735c1.114,0.004,2.013,0.911,2.009,2.024
			C1066.014,836.574,1065.112,837.473,1064.002,837.473z M1077.404,836.657c-0.995,0-1.862-0.738-1.996-1.754
			c-0.146-1.103,0.631-2.116,1.734-2.262c4.428-0.586,8.732-1.516,12.795-2.764c1.065-0.327,2.192,0.271,2.52,1.335
			c0.327,1.064-0.271,2.193-1.335,2.521c-4.276,1.313-8.802,2.291-13.451,2.906C1077.582,836.651,1077.492,836.657,1077.404,836.657
			z M1037.271,834.922c-0.108,0-0.218-0.01-0.329-0.027c-4.829-0.792-9.637-1.705-13.286-2.411
			c-1.094-0.212-1.809-1.269-1.598-2.363c0.213-1.093,1.271-1.806,2.363-1.597c3.623,0.702,8.395,1.608,13.173,2.391
			c1.1,0.18,1.845,1.217,1.664,2.316C1039.097,834.219,1038.241,834.922,1037.271,834.922z M944.582,830.8
			c-0.799,0-1.555-0.477-1.871-1.264c-0.415-1.033,0.084-2.208,1.117-2.624c4.188-1.688,8.646-2.992,13.25-3.877
			c1.097-0.213,2.151,0.505,2.361,1.6c0.211,1.093-0.506,2.15-1.6,2.36c-4.35,0.837-8.557,2.066-12.504,3.658
			C945.088,830.753,944.833,830.8,944.582,830.8z M1010.841,829.948c-0.126,0-0.253-0.011-0.381-0.036
			c-5.292-1.01-9.356-1.725-13.179-2.316c-1.1-0.171-1.854-1.2-1.684-2.302c0.171-1.1,1.204-1.856,2.303-1.683
			c3.87,0.6,7.977,1.32,13.316,2.34c1.094,0.209,1.81,1.265,1.602,2.358C1012.635,829.275,1011.79,829.948,1010.841,829.948z
			 M1102.954,828.747c-0.729,0-1.434-0.396-1.792-1.089c-0.512-0.989-0.125-2.206,0.864-2.719c3.788-1.96,7.508-4.313,11.054-6.991
			c0.889-0.671,2.154-0.496,2.825,0.394c0.671,0.889,0.495,2.152-0.394,2.824c-3.728,2.816-7.642,5.29-11.632,7.357
			C1103.583,828.676,1103.267,828.747,1102.954,828.747z M984.244,825.991c-0.055,0-0.111-0.003-0.168-0.007
			c-4.724-0.391-8.964-0.523-13.203-0.389c-1.104,0.019-2.045-0.839-2.08-1.951c-0.035-1.114,0.839-2.045,1.953-2.08
			c4.392-0.138,8.783-0.003,13.663,0.399c1.108,0.092,1.935,1.066,1.844,2.177C986.164,825.193,985.283,825.991,984.244,825.991z
			 M1407.056,819.768c-0.08,0-0.161-0.005-0.242-0.015c-1.105-0.132-1.896-1.135-1.763-2.241c0.525-4.404,0.969-8.877,1.316-13.295
			c0.088-1.109,1.06-1.94,2.169-1.851c1.11,0.087,1.939,1.058,1.853,2.168c-0.354,4.471-0.801,8.999-1.333,13.455
			C1408.934,819.015,1408.063,819.768,1407.056,819.768z M1124.379,812.708c-0.513,0-1.024-0.194-1.418-0.583
			c-0.792-0.784-0.798-2.06-0.015-2.852c2.963-2.996,5.89-6.334,8.699-9.925c0.688-0.877,1.954-1.031,2.831-0.345
			s1.031,1.953,0.346,2.831c-2.906,3.711-5.938,7.169-9.01,10.274C1125.419,812.508,1124.899,812.708,1124.379,812.708z
			 M1408.666,792.979c-1.033,0-1.912-0.788-2.006-1.838c-0.384-4.327-1.354-8.524-2.889-12.477c-0.402-1.038,0.112-2.207,1.151-2.61
			c1.042-0.404,2.207,0.113,2.609,1.151c1.671,4.307,2.729,8.875,3.146,13.58c0.099,1.108-0.721,2.088-1.831,2.186
			C1408.787,792.977,1408.727,792.979,1408.666,792.979z M1141.773,792.237c-0.484,0-0.972-0.173-1.357-0.527
			c-0.823-0.751-0.882-2.025-0.132-2.848c3.005-3.293,6.266-6.523,9.69-9.602c0.828-0.744,2.104-0.677,2.849,0.152
			c0.743,0.828,0.676,2.102-0.152,2.847c-3.327,2.992-6.491,6.127-9.407,9.322C1142.866,792.016,1142.32,792.237,1141.773,792.237z
			 M1161.723,774.25c-0.612,0-1.219-0.278-1.615-0.809c-0.668-0.892-0.487-2.154,0.405-2.823c3.555-2.662,7.327-5.254,11.212-7.702
			c0.941-0.593,2.187-0.312,2.781,0.631c0.593,0.942,0.311,2.188-0.632,2.781c-3.792,2.392-7.474,4.92-10.943,7.52
			C1162.567,774.119,1162.144,774.25,1161.723,774.25z M1399.126,768.271c-0.613,0-1.22-0.279-1.615-0.808
			c-2.483-3.311-5.487-6.467-8.929-9.379c-0.85-0.721-0.956-1.993-0.236-2.843c0.72-0.851,1.991-0.956,2.842-0.237
			c3.673,3.108,6.886,6.486,9.551,10.041c0.668,0.891,0.486,2.154-0.404,2.822C1399.972,768.139,1399.547,768.271,1399.126,768.271z
			 M1184.43,759.898c-0.721,0-1.418-0.388-1.78-1.069c-0.524-0.982-0.152-2.204,0.832-2.727c3.921-2.089,8.022-4.099,12.191-5.975
			c1.016-0.457,2.21-0.004,2.667,1.012c0.456,1.016,0.003,2.21-1.012,2.667c-4.088,1.838-8.108,3.809-11.951,5.855
			C1185.075,759.822,1184.75,759.898,1184.43,759.898z M1378.898,750.848c-0.347,0-0.697-0.089-1.017-0.276
			c-3.615-2.118-7.584-4.088-11.793-5.857c-1.028-0.432-1.51-1.613-1.078-2.641c0.431-1.027,1.613-1.508,2.64-1.078
			c4.373,1.839,8.501,3.889,12.269,6.096c0.962,0.563,1.285,1.798,0.721,2.76C1380.265,750.491,1379.59,750.848,1378.898,750.848z
			 M1208.934,748.848c-0.815,0-1.582-0.497-1.887-1.305c-0.395-1.041,0.132-2.205,1.174-2.598c4.17-1.577,8.484-3.066,12.822-4.426
			c1.063-0.337,2.195,0.257,2.528,1.319c0.332,1.063-0.259,2.195-1.32,2.527c-4.265,1.339-8.505,2.802-12.605,4.351
			C1209.411,748.807,1209.17,748.848,1208.934,748.848z M1234.582,740.789c-0.899,0-1.719-0.607-1.952-1.519
			c-0.274-1.08,0.377-2.178,1.457-2.453c4.336-1.104,8.783-2.113,13.216-2.998c1.094-0.22,2.154,0.49,2.373,1.582
			c0.218,1.093-0.491,2.154-1.582,2.373c-4.366,0.871-8.743,1.864-13.012,2.951C1234.915,740.769,1234.748,740.789,1234.582,740.789
			z M1354.219,740.341c-0.194,0-0.391-0.027-0.585-0.086c-4.093-1.238-8.419-2.34-12.858-3.278c-1.09-0.23-1.787-1.3-1.558-2.39
			c0.23-1.091,1.302-1.785,2.391-1.557c4.551,0.962,8.99,2.093,13.192,3.363c1.065,0.323,1.669,1.448,1.347,2.514
			C1355.884,739.779,1355.084,740.341,1354.219,740.341z M1260.942,735.523c-0.983,0-1.845-0.722-1.992-1.725
			c-0.161-1.103,0.602-2.127,1.703-2.288c4.452-0.653,8.976-1.198,13.447-1.621c1.114-0.104,2.092,0.709,2.197,1.817
			c0.105,1.109-0.709,2.094-1.817,2.198c-4.403,0.416-8.858,0.954-13.242,1.596C1261.14,735.516,1261.041,735.523,1260.942,735.523z
			 M1327.945,734.735c-0.091,0-0.183-0.008-0.273-0.021c-4.304-0.585-8.76-1.044-13.247-1.363c-1.11-0.079-1.948-1.044-1.868-2.154
			c0.078-1.11,1.042-1.95,2.154-1.869c4.572,0.326,9.116,0.794,13.503,1.391c1.104,0.151,1.878,1.167,1.728,2.271
			C1329.804,734.001,1328.938,734.735,1327.945,734.735z M1287.696,732.998c-1.075,0-1.969-0.847-2.015-1.933
			c-0.046-1.112,0.818-2.052,1.931-2.099c4.53-0.19,9.089-0.259,13.555-0.201c1.112,0.015,2.004,0.929,1.99,2.042
			c-0.014,1.105-0.914,1.991-2.016,1.991c-0.009,0-0.018,0-0.026,0c-4.395-0.059-8.876,0.01-13.333,0.197
			C1287.754,732.997,1287.725,732.998,1287.696,732.998z"/>
	</g>
	<g>
		<path style="fill:#F77D48;" d="M1690.585,906.927c-0.827,0-1.604-0.513-1.897-1.338c-0.376-1.048,0.17-2.202,1.218-2.577
			c0.047-0.018,4.729-1.7,12.503-4.953c1.029-0.431,2.209,0.054,2.64,1.081c0.429,1.028-0.056,2.21-1.083,2.64
			c-7.882,3.299-12.507,4.96-12.699,5.029C1691.041,906.889,1690.811,906.927,1690.585,906.927z M1715.552,896.545
			c-0.767,0-1.5-0.439-1.838-1.186c-0.459-1.014-0.009-2.208,1.005-2.668c4.032-1.827,8.124-3.746,12.161-5.705
			c1.003-0.487,2.208-0.067,2.694,0.934c0.486,1.003,0.069,2.209-0.934,2.695c-4.069,1.975-8.193,3.908-12.258,5.75
			C1716.113,896.487,1715.83,896.545,1715.552,896.545z M1739.812,884.775c-0.729,0-1.434-0.396-1.792-1.089
			c-0.513-0.989-0.125-2.206,0.863-2.718c3.964-2.055,7.945-4.184,11.836-6.331c0.976-0.541,2.201-0.185,2.74,0.791
			c0.539,0.975,0.184,2.201-0.791,2.74c-3.922,2.165-7.936,4.312-11.931,6.381C1740.44,884.702,1740.123,884.775,1739.812,884.775z
			 M1763.398,871.747c-0.691,0-1.364-0.356-1.738-0.994c-0.566-0.959-0.246-2.195,0.713-2.762c3.879-2.284,7.734-4.63,11.456-6.972
			c0.942-0.592,2.187-0.309,2.78,0.634c0.594,0.942,0.31,2.188-0.633,2.78c-3.756,2.362-7.643,4.729-11.557,7.033
			C1764.099,871.656,1763.746,871.747,1763.398,871.747z M1786.192,857.398c-0.648,0-1.284-0.311-1.675-0.89
			c-0.621-0.924-0.377-2.178,0.547-2.799c3.73-2.514,7.428-5.093,10.987-7.668c0.901-0.653,2.164-0.449,2.816,0.453
			c0.651,0.902,0.45,2.163-0.453,2.815c-3.596,2.601-7.329,5.206-11.098,7.744C1786.972,857.287,1786.581,857.398,1786.192,857.398z
			 M1807.998,841.607c-0.601,0-1.194-0.266-1.592-0.776c-0.686-0.876-0.529-2.145,0.35-2.83c3.557-2.775,7.049-5.615,10.381-8.438
			c0.85-0.722,2.123-0.615,2.842,0.234c0.721,0.85,0.615,2.122-0.234,2.842c-3.373,2.857-6.907,5.732-10.508,8.541
			C1808.868,841.469,1808.431,841.607,1807.998,841.607z M1828.505,824.214c-0.543,0-1.084-0.218-1.48-0.647
			c-0.757-0.817-0.708-2.094,0.11-2.851c3.312-3.063,6.534-6.193,9.579-9.299c0.779-0.796,2.056-0.809,2.852-0.029
			c0.796,0.78,0.809,2.057,0.028,2.852c-3.091,3.153-6.36,6.329-9.72,9.439C1829.485,824.037,1828.994,824.214,1828.505,824.214z
			 M1847.316,804.987c-0.472,0-0.947-0.165-1.33-0.503c-0.836-0.735-0.918-2.009-0.183-2.847c2.981-3.388,5.845-6.844,8.513-10.274
			c0.683-0.877,1.952-1.038,2.829-0.352c0.88,0.684,1.039,1.95,0.354,2.83c-2.718,3.492-5.633,7.011-8.667,10.461
			C1848.434,804.756,1847.877,804.987,1847.316,804.987z M1863.819,783.729c-0.389,0-0.78-0.112-1.128-0.346
			c-0.922-0.624-1.165-1.878-0.541-2.8c2.512-3.718,4.881-7.515,7.042-11.285c0.553-0.968,1.785-1.301,2.752-0.747
			c0.966,0.554,1.301,1.786,0.747,2.752c-2.209,3.857-4.631,7.738-7.199,11.538C1865.103,783.418,1864.467,783.729,1863.819,783.729
			z M1877.141,760.405c-0.287,0-0.579-0.061-0.855-0.19c-1.008-0.473-1.443-1.674-0.97-2.683c1.89-4.029,3.601-8.137,5.086-12.205
			c0.382-1.046,1.538-1.586,2.585-1.202c1.046,0.382,1.585,1.539,1.203,2.585c-1.525,4.181-3.281,8.398-5.223,12.534
			C1878.624,759.976,1877.898,760.405,1877.141,760.405z M1886.297,735.232c-0.169,0-0.34-0.021-0.511-0.064
			c-1.078-0.281-1.724-1.383-1.442-2.46c1.111-4.268,2.02-8.618,2.696-12.929c0.172-1.101,1.207-1.851,2.305-1.679
			c1.101,0.173,1.853,1.205,1.68,2.305c-0.697,4.441-1.632,8.923-2.778,13.32C1888.011,734.633,1887.191,735.232,1886.297,735.232z
			 M1890.443,708.771c-0.037,0-0.075,0-0.113-0.002c-1.111-0.06-1.964-1.011-1.902-2.123c0.131-2.38,0.195-4.804,0.196-7.202
			c0-2-0.046-4.03-0.136-6.033c-0.052-1.113,0.811-2.056,1.923-2.105c1.104-0.065,2.056,0.809,2.105,1.923
			c0.094,2.063,0.142,4.155,0.142,6.216c-0.001,2.473-0.069,4.97-0.204,7.421C1892.396,707.94,1891.506,708.771,1890.443,708.771z
			 M1889.24,681.958c-0.988,0-1.85-0.727-1.994-1.732c-0.613-4.306-1.443-8.688-2.469-13.024c-0.256-1.083,0.414-2.17,1.498-2.426
			c1.078-0.256,2.17,0.415,2.426,1.499c1.055,4.454,1.907,8.956,2.539,13.382c0.156,1.102-0.61,2.124-1.713,2.281
			C1889.431,681.952,1889.335,681.958,1889.24,681.958z M1883.098,655.818c-0.85,0-1.639-0.541-1.917-1.392
			c-1.344-4.12-2.892-8.315-4.603-12.465c-0.425-1.03,0.067-2.209,1.096-2.634c1.031-0.422,2.21,0.067,2.633,1.097
			c1.749,4.244,3.334,8.534,4.709,12.751c0.345,1.06-0.232,2.196-1.292,2.543C1883.516,655.786,1883.305,655.818,1883.098,655.818z
			 M1872.899,630.967c-0.746,0-1.463-0.415-1.813-1.13c-1.969-4.02-4.014-8.026-6.077-11.91c-0.522-0.984-0.149-2.204,0.833-2.728
			c0.984-0.523,2.204-0.148,2.728,0.834c2.085,3.923,4.151,7.971,6.14,12.03c0.489,1,0.075,2.208-0.925,2.698
			C1873.498,630.9,1873.196,630.967,1872.899,630.967z M1860.269,607.247c-0.696,0-1.372-0.361-1.746-1.007
			c-2.254-3.891-4.581-7.736-6.918-11.43c-0.597-0.94-0.316-2.186,0.625-2.781c0.94-0.597,2.186-0.316,2.782,0.625
			c2.366,3.737,4.721,7.628,7,11.565c0.559,0.963,0.23,2.198-0.734,2.756C1860.96,607.158,1860.612,607.247,1860.269,607.247z
			 M1845.89,584.545c-0.64,0-1.268-0.304-1.658-0.868c-2.566-3.699-5.209-7.329-7.854-10.79c-0.677-0.884-0.508-2.15,0.377-2.826
			c0.886-0.678,2.149-0.507,2.826,0.377c2.685,3.51,5.363,7.191,7.963,10.941c0.636,0.915,0.409,2.171-0.507,2.806
			C1846.687,584.428,1846.285,584.545,1845.89,584.545z M1673.157,582.57c-0.562,0-1.116-0.013-1.665-0.039
			c-1.111-0.052-1.973-0.996-1.92-2.108c0.052-1.113,0.995-1.983,2.108-1.92c3.827,0.179,8.083-0.349,12.685-1.561
			c1.082-0.284,2.181,0.36,2.465,1.437c0.283,1.077-0.36,2.181-1.437,2.465C1681.042,581.989,1676.927,582.57,1673.157,582.57z
			 M1658.986,578.455c-0.413,0-0.833-0.127-1.192-0.392c-3.776-2.774-6.532-6.778-8.19-11.899c-0.345-1.06,0.236-2.197,1.295-2.54
			c1.062-0.344,2.198,0.237,2.54,1.296c1.395,4.302,3.663,7.629,6.745,9.895c0.896,0.659,1.09,1.921,0.431,2.818
			C1660.218,578.171,1659.606,578.455,1658.986,578.455z M1697.492,576.271c-0.762,0-1.489-0.433-1.831-1.167
			c-0.47-1.01-0.031-2.21,0.979-2.68c3.822-1.776,7.712-3.911,11.561-6.345c0.944-0.596,2.187-0.314,2.782,0.627
			c0.596,0.941,0.314,2.188-0.626,2.782c-3.995,2.526-8.038,4.744-12.017,6.595C1698.064,576.211,1697.775,576.271,1697.492,576.271
			z M1829.56,563.207c-0.572,0-1.142-0.242-1.54-0.713c-2.902-3.427-5.893-6.769-8.885-9.934c-0.766-0.808-0.73-2.084,0.078-2.85
			c0.809-0.765,2.085-0.729,2.852,0.079c3.043,3.216,6.082,6.614,9.033,10.097c0.72,0.85,0.614,2.122-0.235,2.843
			C1830.482,563.05,1830.021,563.207,1829.56,563.207z M1720.228,561.989c-0.592,0-1.179-0.259-1.576-0.758
			c-0.696-0.87-0.555-2.14,0.315-2.835c3.464-2.769,6.786-5.732,9.877-8.81c0.789-0.785,2.067-0.783,2.852,0.005
			c0.786,0.789,0.783,2.066-0.006,2.852c-3.193,3.181-6.627,6.244-10.204,9.104C1721.113,561.845,1720.669,561.989,1720.228,561.989
			z M1649.736,554.298c-0.008,0-0.015,0-0.022,0c-1.113-0.013-2.007-0.925-1.994-2.039c0.053-4.721,0.742-9.361,2.05-13.797
			c0.314-1.067,1.436-1.68,2.505-1.363c1.068,0.316,1.679,1.438,1.364,2.505c-1.203,4.079-1.838,8.351-1.887,12.7
			C1651.74,553.41,1650.84,554.298,1649.736,554.298z M1811.079,543.709c-0.496,0-0.991-0.181-1.38-0.544
			c-3.277-3.072-6.641-6.025-9.998-8.776c-0.861-0.706-0.987-1.978-0.28-2.839c0.706-0.862,1.978-0.986,2.838-0.28
			c3.426,2.809,6.856,5.82,10.198,8.952c0.813,0.762,0.854,2.037,0.094,2.85C1812.153,543.495,1811.616,543.709,1811.079,543.709z
			 M1739.219,542.999c-0.436,0-0.875-0.14-1.245-0.431c-0.875-0.689-1.027-1.956-0.338-2.832c2.826-3.594,5.303-7.254,7.359-10.88
			c0.549-0.969,1.78-1.308,2.748-0.76c0.97,0.55,1.31,1.78,0.76,2.75c-2.157,3.801-4.746,7.632-7.697,11.384
			C1740.408,542.735,1739.816,542.999,1739.219,542.999z M1657.252,528.862c-0.369,0-0.743-0.102-1.078-0.314
			c-0.941-0.598-1.218-1.844-0.621-2.783c2.449-3.857,5.454-7.45,8.932-10.678c0.817-0.759,2.094-0.71,2.851,0.105
			c0.758,0.816,0.71,2.092-0.106,2.851c-3.225,2.992-6.008,6.317-8.271,9.884C1658.573,528.531,1657.919,528.862,1657.252,528.862z
			 M1790.29,526.702c-0.401,0-0.807-0.121-1.16-0.369c-3.659-2.582-7.409-5.009-11.142-7.218c-0.959-0.566-1.276-1.804-0.709-2.762
			c0.566-0.96,1.803-1.275,2.763-0.71c3.824,2.263,7.664,4.75,11.413,7.392c0.91,0.643,1.127,1.901,0.484,2.811
			C1791.547,526.403,1790.924,526.702,1790.29,526.702z M1752.205,519.606c-0.203,0-0.41-0.03-0.614-0.095
			c-1.061-0.34-1.646-1.474-1.308-2.534c1.385-4.345,2.104-8.581,2.132-12.596c0.007-1.108,0.909-2.002,2.016-2.002
			c0.006,0,0.011,0,0.015,0c1.078,0.008,1.952,0.859,2,1.923c3.866,1.44,7.761,3.095,11.59,4.926
			c1.006,0.48,1.431,1.686,0.949,2.689c-0.479,1.004-1.683,1.431-2.688,0.949c-3.335-1.594-6.72-3.052-10.088-4.342
			c-0.339,3.153-1.035,6.394-2.083,9.677C1753.852,519.06,1753.059,519.606,1752.205,519.606z M1676.67,510.645
			c-0.697,0-1.373-0.361-1.748-1.01c-0.556-0.964-0.227-2.197,0.738-2.754c3.896-2.248,8.129-4.162,12.586-5.686
			c1.056-0.363,2.2,0.2,2.562,1.254c0.36,1.055-0.201,2.201-1.256,2.561c-4.209,1.441-8.205,3.245-11.874,5.364
			C1677.359,510.557,1677.013,510.645,1676.67,510.645z M1741.933,503.942c-0.159,0-0.321-0.02-0.482-0.06
			c-4.335-1.064-8.699-1.868-12.974-2.391c-1.104-0.135-1.892-1.14-1.757-2.246c0.135-1.105,1.136-1.895,2.246-1.757
			c4.432,0.541,8.957,1.374,13.446,2.478c1.081,0.266,1.743,1.357,1.478,2.44C1743.663,503.326,1742.84,503.942,1741.933,503.942z
			 M1701.927,501.887c-0.971,0-1.828-0.704-1.988-1.694c-0.179-1.1,0.568-2.136,1.668-2.314c4.421-0.716,9.024-1.105,13.681-1.16
			c0.008,0,0.016,0,0.023,0c1.104,0,2.004,0.888,2.016,1.994c0.014,1.113-0.879,2.025-1.992,2.039
			c-4.457,0.052-8.859,0.424-13.082,1.108C1702.142,501.878,1702.033,501.887,1701.927,501.887z M1751.97,493.289
			c-0.796,0-1.55-0.475-1.869-1.256c-0.896-2.201-2.07-4.34-3.484-6.357c-1.045-1.489-2.178-2.983-3.37-4.441
			c-0.704-0.861-0.576-2.132,0.285-2.838c0.862-0.703,2.133-0.578,2.838,0.285c1.254,1.535,2.448,3.109,3.549,4.68
			c1.588,2.264,2.906,4.668,3.916,7.148c0.422,1.031-0.074,2.208-1.104,2.629C1752.479,493.24,1752.222,493.289,1751.97,493.289z
			 M1735.527,472.268c-0.482,0-0.966-0.173-1.353-0.522c-3.147-2.848-6.618-5.611-10.319-8.213c-0.911-0.641-1.13-1.898-0.488-2.81
			c0.639-0.911,1.896-1.13,2.808-0.489c3.835,2.695,7.437,5.563,10.706,8.521c0.826,0.747,0.89,2.021,0.143,2.849
			C1736.625,472.044,1736.077,472.268,1735.527,472.268z M1550.894,462.751c-0.539,0-1.077-0.216-1.475-0.641
			c-0.76-0.815-0.716-2.091,0.099-2.851c2.772-2.587,5.787-5.037,8.957-7.285c0.907-0.644,2.169-0.43,2.812,0.479
			c0.644,0.909,0.43,2.167-0.479,2.811c-3.023,2.144-5.896,4.479-8.537,6.942C1551.881,462.571,1551.387,462.751,1550.894,462.751z
			 M1713.623,456.768c-0.332,0-0.669-0.083-0.981-0.256c-3.765-2.102-7.758-4.094-11.864-5.922
			c-1.018-0.452-1.477-1.645-1.023-2.662c0.453-1.018,1.647-1.475,2.662-1.022c4.218,1.876,8.32,3.924,12.191,6.084
			c0.973,0.543,1.321,1.771,0.778,2.744C1715.017,456.395,1714.33,456.768,1713.623,456.768z M1571.146,448.701
			c-0.734,0-1.442-0.402-1.799-1.101c-0.505-0.993-0.111-2.207,0.881-2.713c3.967-2.023,8.2-3.845,12.58-5.413
			c1.049-0.374,2.203,0.17,2.58,1.219c0.374,1.048-0.171,2.203-1.22,2.578c-4.22,1.512-8.293,3.264-12.108,5.209
			C1571.767,448.63,1571.454,448.701,1571.146,448.701z M1689.099,445.815c-0.222,0-0.446-0.036-0.667-0.113
			c-4.127-1.446-8.399-2.76-12.694-3.903c-1.077-0.287-1.717-1.392-1.43-2.468c0.286-1.076,1.389-1.715,2.468-1.43
			c4.395,1.17,8.765,2.514,12.99,3.994c1.051,0.368,1.604,1.519,1.235,2.569C1690.712,445.295,1689.932,445.815,1689.099,445.815z
			 M1596.38,439.586c-0.914,0-1.741-0.625-1.961-1.553c-0.257-1.084,0.415-2.17,1.498-2.427c4.326-1.022,8.841-1.854,13.417-2.471
			c1.108-0.146,2.121,0.625,2.269,1.729c0.148,1.104-0.625,2.118-1.729,2.268c-4.447,0.599-8.829,1.406-13.028,2.399
			C1596.689,439.568,1596.534,439.586,1596.38,439.586z M1663.15,438.891c-0.123,0-0.248-0.012-0.374-0.035
			c-4.353-0.819-8.775-1.484-13.148-1.977c-1.106-0.125-1.902-1.123-1.776-2.229c0.123-1.107,1.123-1.904,2.228-1.778
			c4.472,0.503,8.994,1.183,13.443,2.021c1.095,0.206,1.814,1.261,1.608,2.355C1664.948,438.216,1664.103,438.891,1663.15,438.891z
			 M1622.994,435.955c-1.071,0-1.963-0.843-2.013-1.925c-0.051-1.112,0.811-2.056,1.923-2.105c4.473-0.203,9.068-0.223,13.608-0.061
			c1.114,0.04,1.984,0.975,1.944,2.087c-0.04,1.113-0.943,1.989-2.088,1.944c-4.431-0.157-8.917-0.141-13.28,0.059
			C1623.057,435.955,1623.025,435.955,1622.994,435.955z"/>
	</g>
	<g>
		<path style="fill:#F77D48;" d="M2196.03,1007.381c-0.405,0-0.815-0.122-1.169-0.375c-0.907-0.648-1.117-1.906-0.471-2.814
			c2.471-3.459,4.779-7.237,6.863-11.232c0.517-0.986,1.732-1.37,2.721-0.854c0.988,0.516,1.369,1.734,0.854,2.722
			c-2.169,4.159-4.577,8.099-7.155,11.708C2197.279,1007.088,2196.66,1007.381,2196.03,1007.381z M2208.485,983.623
			c-0.233,0-0.47-0.041-0.699-0.126c-1.045-0.386-1.577-1.545-1.192-2.59c1.514-4.095,2.788-8.343,3.79-12.63
			c0.253-1.084,1.338-1.756,2.423-1.505c1.084,0.254,1.758,1.339,1.506,2.423c-1.041,4.449-2.365,8.859-3.936,13.109
			C2210.075,983.119,2209.305,983.623,2208.485,983.623z M2214.605,957.511c-0.072,0-0.146-0.005-0.221-0.013
			c-1.107-0.12-1.908-1.115-1.787-2.223c0.439-4.014,0.66-8.135,0.66-12.245l-0.004-0.936c-0.01-1.114,0.885-2.025,1.999-2.033
			c0.006-0.001,0.012-0.001,0.018-0.001c1.105,0,2.007,0.892,2.016,2l0.006,0.971c0,4.256-0.23,8.522-0.685,12.682
			C2216.495,956.745,2215.621,957.511,2214.605,957.511z M2214.417,930.684c-1.009,0-1.88-0.755-2.001-1.781
			c-0.507-4.295-1.254-8.683-2.221-13.046c-0.242-1.087,0.444-2.164,1.531-2.406c1.091-0.237,2.164,0.446,2.405,1.533
			c0.996,4.494,1.768,9.018,2.289,13.446c0.13,1.106-0.66,2.109-1.767,2.239C2214.574,930.679,2214.496,930.684,2214.417,930.684z
			 M2208.648,904.466c-0.854,0-1.646-0.546-1.919-1.403c-0.567-1.773-1.18-3.575-1.82-5.358c-0.824-2.295-1.823-4.594-2.963-6.83
			c-0.507-0.991-0.111-2.206,0.88-2.713c0.994-0.505,2.207-0.111,2.712,0.881c1.219,2.387,2.284,4.842,3.166,7.299
			c0.658,1.827,1.285,3.676,1.867,5.494c0.338,1.06-0.246,2.195-1.308,2.534C2209.061,904.435,2208.854,904.466,2208.648,904.466z
			 M2196.482,880.688c-0.599,0-1.19-0.264-1.589-0.771c-2.587-3.297-5.581-6.537-8.899-9.631c-0.814-0.76-0.859-2.036-0.102-2.851
			c0.761-0.813,2.036-0.86,2.851-0.1c3.474,3.236,6.608,6.631,9.323,10.092c0.688,0.877,0.535,2.144-0.341,2.832
			C2197.357,880.548,2196.917,880.688,2196.482,880.688z M2096.807,873.174c-0.01,0-0.019,0-0.027,0
			c-4.647-0.063-9.219-0.302-13.588-0.712c-1.109-0.104-1.923-1.087-1.818-2.196c0.104-1.109,1.092-1.915,2.195-1.819
			c4.262,0.4,8.725,0.634,13.265,0.693c1.113,0.015,2.005,0.93,1.989,2.043C2098.808,872.287,2097.907,873.174,2096.807,873.174z
			 M2110.248,872.868c-1.061,0-1.949-0.828-2.011-1.901c-0.064-1.112,0.784-2.065,1.896-2.129c4.42-0.256,8.884-0.666,13.268-1.223
			c1.111-0.135,2.115,0.644,2.255,1.749c0.141,1.104-0.643,2.113-1.748,2.253c-4.476,0.568-9.031,0.986-13.542,1.247
			C2110.326,872.866,2110.287,872.868,2110.248,872.868z M2070.075,870.565c-0.129,0-0.261-0.013-0.394-0.039
			c-4.822-0.957-9.282-2.169-13.257-3.601c-1.048-0.377-1.591-1.533-1.214-2.58c0.378-1.049,1.531-1.593,2.581-1.213
			c3.786,1.362,8.05,2.519,12.675,3.438c1.093,0.217,1.802,1.278,1.585,2.371C2071.861,869.901,2071.019,870.565,2070.075,870.565z
			 M2136.925,869.474c-0.941,0-1.783-0.662-1.975-1.621c-0.22-1.092,0.488-2.154,1.58-2.373c4.452-0.892,8.797-1.94,12.913-3.121
			c1.069-0.308,2.188,0.313,2.494,1.383c0.308,1.071-0.313,2.188-1.384,2.494c-4.221,1.21-8.673,2.286-13.23,3.199
			C2137.188,869.461,2137.056,869.474,2136.925,869.474z M2176.972,862.313c-0.409,0-0.823-0.124-1.182-0.383
			c-1.573-1.142-3.209-2.267-4.896-3.371c-2.35,1.152-4.828,2.251-7.415,3.284c-1.035,0.415-2.207-0.09-2.62-1.123
			c-0.413-1.034,0.09-2.208,1.124-2.621c1.673-0.669,3.298-1.366,4.868-2.085c-0.716-0.435-1.44-0.864-2.17-1.29
			c-0.963-0.56-1.288-1.794-0.729-2.756c0.561-0.963,1.795-1.29,2.759-0.729c1.502,0.875,2.978,1.769,4.422,2.681
			c0.935-0.488,1.844-0.984,2.727-1.488c0.966-0.553,2.198-0.217,2.752,0.75c0.552,0.968,0.216,2.199-0.751,2.752
			c-0.293,0.167-0.589,0.333-0.886,0.498c1.085,0.737,2.147,1.481,3.184,2.233c0.901,0.652,1.104,1.913,0.449,2.815
			C2178.213,862.023,2177.596,862.313,2176.972,862.313z M2045.126,861.04c-0.402,0-0.807-0.119-1.161-0.369
			c-3.782-2.667-6.619-5.724-8.431-9.086c-0.325-0.604-0.624-1.216-0.889-1.815c-0.449-1.018,0.014-2.21,1.032-2.659
			c1.016-0.446,2.211,0.013,2.658,1.032c0.222,0.503,0.475,1.017,0.749,1.528c1.513,2.807,3.937,5.399,7.205,7.703
			c0.909,0.642,1.127,1.899,0.484,2.81C2046.382,860.742,2045.758,861.04,2045.126,861.04z M2153.792,848.739
			c-0.289,0-0.585-0.063-0.864-0.195c-3.904-1.858-8.016-3.629-12.217-5.265c-1.038-0.404-1.551-1.573-1.146-2.611
			c0.404-1.037,1.568-1.555,2.61-1.148c4.291,1.671,8.492,3.482,12.485,5.381c1.006,0.477,1.434,1.681,0.955,2.686
			C2155.271,848.313,2154.547,848.739,2153.792,848.739z M2185.805,848.438c-0.554,0-1.104-0.226-1.503-0.669
			c-0.743-0.829-0.675-2.104,0.155-2.848c3.441-3.089,6.119-6.402,7.959-9.846c0.524-0.982,1.744-1.352,2.728-0.829
			c0.982,0.524,1.354,1.746,0.83,2.729c-2.062,3.86-5.029,7.544-8.823,10.947C2186.765,848.268,2186.285,848.438,2185.805,848.438z
			 M2128.752,838.952c-0.201,0-0.406-0.03-0.608-0.095c-4.201-1.327-8.514-2.543-12.819-3.614c-1.08-0.27-1.739-1.364-1.47-2.443
			c0.27-1.082,1.366-1.739,2.444-1.47c4.385,1.09,8.779,2.329,13.059,3.682c1.063,0.336,1.652,1.468,1.316,2.529
			C2130.402,838.402,2129.607,838.952,2128.752,838.952z M2037.667,838.376c-0.464,0-0.931-0.159-1.312-0.486
			c-0.845-0.724-0.943-1.998-0.219-2.843c2.602-3.034,6.833-5.404,12.576-7.045c1.072-0.304,2.187,0.314,2.492,1.385
			c0.306,1.072-0.314,2.188-1.386,2.494c-4.968,1.418-8.542,3.368-10.62,5.792C2038.8,838.137,2038.234,838.376,2037.667,838.376z
			 M2102.666,832.463c-0.121,0-0.243-0.011-0.366-0.033c-4.435-0.815-8.866-1.475-13.169-1.965c-1.107-0.126-1.9-1.126-1.775-2.232
			c0.125-1.106,1.131-1.9,2.231-1.775c4.395,0.501,8.916,1.176,13.44,2.005c1.096,0.201,1.821,1.252,1.62,2.348
			C2104.469,831.782,2103.621,832.463,2102.666,832.463z M2062.502,829.735c-1.043,0-1.925-0.801-2.01-1.857
			c-0.088-1.109,0.742-2.082,1.852-2.17c4.203-0.334,8.809-0.426,13.667-0.266c1.114,0.035,1.986,0.968,1.949,2.08
			c-0.036,1.112-0.956,1.965-2.081,1.95c-4.711-0.153-9.164-0.065-13.216,0.256C2062.608,829.734,2062.555,829.735,2062.502,829.735
			z M2197.535,825.197c-0.006,0-0.011,0-0.011,0c-1.12-0.011-2.016-0.921-2.005-2.034l0.001-0.292c0-3.838-0.854-7.875-2.543-12.004
			c-0.422-1.031,0.072-2.209,1.104-2.629c1.029-0.424,2.207,0.071,2.63,1.103c1.887,4.616,2.843,9.168,2.842,13.531l-0.003,0.325
			C2199.542,824.306,2198.642,825.197,2197.535,825.197z M2188.197,800.476c-0.624,0-1.24-0.288-1.635-0.831
			c-2.368-3.26-5.237-6.622-8.527-9.995c-0.776-0.798-0.762-2.074,0.036-2.852c0.798-0.778,2.073-0.762,2.852,0.034
			c3.426,3.513,6.422,7.025,8.903,10.442c0.654,0.901,0.454,2.162-0.447,2.816C2189.021,800.352,2188.606,800.476,2188.197,800.476z
			 M2169.515,781.251c-0.441,0-0.885-0.144-1.256-0.439c-3.364-2.682-6.993-5.246-10.787-7.623c-0.943-0.592-1.229-1.836-0.639-2.78
			c0.593-0.943,1.834-1.229,2.78-0.638c3.922,2.458,7.677,5.111,11.159,7.888c0.87,0.694,1.015,1.963,0.319,2.833
			C2170.694,780.991,2170.107,781.251,2169.515,781.251z M2146.794,766.947c-0.299,0-0.604-0.066-0.894-0.209
			c-3.852-1.907-7.935-3.71-12.135-5.355c-1.037-0.406-1.547-1.577-1.142-2.613c0.407-1.036,1.575-1.549,2.613-1.142
			c4.31,1.689,8.499,3.538,12.454,5.497c0.997,0.494,1.407,1.703,0.911,2.702C2148.251,766.536,2147.537,766.947,2146.794,766.947z
			 M1895.57,763.325c-0.895,0-1.714-0.601-1.949-1.508c-0.282-1.077,0.362-2.18,1.44-2.461c0.047-0.013,4.9-1.278,13.201-3.093
			c1.088-0.241,2.162,0.45,2.401,1.538c0.238,1.089-0.451,2.163-1.539,2.4c-8.213,1.797-12.996,3.044-13.044,3.057
			C1895.91,763.304,1895.739,763.325,1895.57,763.325z M1921.873,757.523c-0.945,0-1.788-0.667-1.977-1.63
			c-0.214-1.093,0.498-2.153,1.591-2.367c4.362-0.853,8.828-1.678,13.272-2.454c1.088-0.191,2.143,0.541,2.334,1.639
			c0.191,1.098-0.542,2.142-1.641,2.334c-4.417,0.771-8.856,1.592-13.191,2.44C1922.131,757.512,1922,757.523,1921.873,757.523z
			 M2121.811,757.097c-0.196,0-0.396-0.028-0.595-0.09c-4.118-1.269-8.439-2.448-12.845-3.504c-1.082-0.26-1.751-1.349-1.491-2.432
			s1.347-1.749,2.433-1.491c4.486,1.075,8.893,2.277,13.094,3.573c1.063,0.328,1.66,1.457,1.331,2.521
			C2123.47,756.541,2122.673,757.097,2121.811,757.097z M1948.379,752.892c-0.979,0-1.837-0.713-1.99-1.71
			c-0.17-1.1,0.585-2.131,1.686-2.3c4.444-0.685,8.937-1.332,13.355-1.924c1.094-0.145,2.117,0.628,2.266,1.732
			c0.146,1.105-0.627,2.118-1.732,2.267c-4.392,0.587-8.857,1.23-13.274,1.911C1948.585,752.884,1948.48,752.892,1948.379,752.892z
			 M2095.687,750.798c-0.12,0-0.241-0.011-0.363-0.033c-4.262-0.773-8.703-1.467-13.198-2.06c-1.104-0.146-1.882-1.159-1.735-2.264
			c0.146-1.104,1.149-1.884,2.263-1.734c4.561,0.602,9.065,1.306,13.392,2.092c1.097,0.198,1.823,1.248,1.624,2.344
			C2097.491,750.115,2096.643,750.798,2095.687,750.798z M1975.045,749.331c-1.012,0-1.886-0.762-2-1.792
			c-0.125-1.107,0.672-2.105,1.778-2.23c4.487-0.504,9.006-0.961,13.428-1.36c1.099-0.093,2.089,0.719,2.188,1.827
			c0.102,1.111-0.719,2.09-1.828,2.19c-4.393,0.396-8.88,0.851-13.338,1.352C1975.197,749.326,1975.121,749.331,1975.045,749.331z
			 M2069.02,747.25c-0.06,0-0.121-0.002-0.182-0.007c-4.336-0.387-8.825-0.699-13.342-0.929c-1.113-0.057-1.968-1.005-1.912-2.117
			c0.058-1.112,1.023-1.964,2.116-1.911c4.567,0.233,9.107,0.549,13.495,0.94c1.11,0.099,1.929,1.078,1.831,2.188
			C2070.933,746.461,2070.051,747.25,2069.02,747.25z M2001.84,746.924c-1.054,0-1.941-0.816-2.012-1.883
			c-0.073-1.111,0.768-2.072,1.878-2.146c4.527-0.301,9.063-0.544,13.483-0.724c1.116-0.061,2.051,0.819,2.098,1.932
			c0.045,1.112-0.819,2.053-1.934,2.098c-4.385,0.179-8.887,0.42-13.379,0.719C2001.928,746.923,2001.885,746.924,2001.84,746.924z
			 M2042.159,745.861c-0.011,0-0.023,0-0.036,0c-2.471-0.042-5.014-0.047-7.544-0.063c-1.948,0-3.895,0.013-5.835,0.038
			c-1.127-0.006-2.028-0.876-2.043-1.989c-0.015-1.114,0.877-2.028,1.99-2.043c1.991-0.026,4.01-0.024,5.986-0.039
			c2.523,0,5.053,0.021,7.516,0.065c1.114,0.018,2.001,0.938,1.982,2.05C2044.156,744.981,2043.258,745.861,2042.159,745.861z"/>
	</g>
	<g>
		<path style="fill:#F77D48;" d="M1980.897,1189.691c-39.78,20.004-87.524-28.187-78.296,36.298
			c9.22,64.476-83.788,64.63-149.5,56.446c-65.712-8.192-57.947,70.922-124.322,80.032c-66.376,9.103-123.105-33.032-123.105-33.032
			l-36.733-145.863c-4.628-18.376,9.438-36.161,28.596-36.161h491.09C1988.626,1147.411,2020.668,1169.688,1980.897,1189.691z"/>
	</g>
	<g>
		<path style="fill:#FFFFFF;" d="M1541.361,1195.661h18.108c10.695,0,18.825,6.114,20.936,15.517
			c2.314,10.322-4.743,15.714-14.849,15.714h-9.119l3.317,14.794h-8.069L1541.361,1195.661z M1564.183,1219.594
			c6.103,0,9.141-3.419,8.034-8.35c-1.209-5.392-5.715-8.219-11.751-8.219h-9.384l3.717,16.568H1564.183z"/>
		<path style="fill:#FFFFFF;" d="M1585.188,1195.661h8.069l8.672,38.66h24.146l1.653,7.364h-32.218L1585.188,1195.661z"/>
		<path style="fill:#FFFFFF;" d="M1641.995,1195.332h7.479l30.608,46.354h-8.531l-7.15-11.111h-21.719l-2.231,11.111h-8.267
			L1641.995,1195.332z M1659.841,1223.407l-12.068-18.41l-3.745,18.41H1659.841z"/>
		<path style="fill:#FFFFFF;" d="M1690.18,1223.538l-24.492-27.877h9.512l17.433,20.382l8.42-20.382h9.252l-12.031,27.681
			l4.114,18.344h-8.136L1690.18,1223.538z"/>
	</g>
	<g>
		<path style="fill:#FFFFFF;" d="M1720.768,1236.063c0-3.39,2.747-6.138,6.137-6.138c3.391,0,6.139,2.748,6.139,6.138
			s-2.748,6.138-6.139,6.138C1723.515,1242.201,1720.768,1239.453,1720.768,1236.063z"/>
	</g>
	<g>
		<circle style="fill:#FFFFFF;" cx="1753.102" cy="1236.063" r="6.138"/>
	</g>
	<g>
		<path style="fill:#FFFFFF;" d="M1772.933,1236.063c0-3.39,2.747-6.138,6.138-6.138c3.39,0,6.137,2.748,6.137,6.138
			s-2.747,6.138-6.137,6.138C1775.68,1242.201,1772.933,1239.453,1772.933,1236.063z"/>
	</g>
</g>
</svg>
