<svg xmlns="http://www.w3.org/2000/svg" xmlns:xlink="http://www.w3.org/1999/xlink" enable-background="new 0 0 4680 3120" viewBox="0 0 4680 3120" width="550" height="550"><path fill="#2d85c6" d="M2404.51 2025.868l58.066-42.794-49.994-56.712c0 0-61.049-25.803-64.74-14.988-3.722 10.786-14.867 50.387-14.867 50.387L2404.51 2025.868zM2822.462 2047.394l58.007-42.84-49.919-56.712c0 0-61.051-25.742-64.756-14.987-3.675 10.814-14.836 50.416-14.836 50.416L2822.462 2047.394z" class="color2d85c6 svgShape"></path><polygon fill="#2d85c6" points="2164.209 1353.245 2222.262 1310.421 2274.094 1344.854 2270.102 1391.731 2226.69 1409.265" class="color2d85c6 svgShape"></polygon><polygon fill="#2d85c6" points="2637.58 1346.347 2695.631 1303.643 2747.449 1337.972 2743.471 1384.817 2700.031 1402.396" class="color2d85c6 svgShape"></polygon><polygon fill="#2d85c6" points="2296.508 1987.925 2222.186 1310.979 2511.17 1307.152 2695.886 1771.906 2695.675 1302.558 2978.545 1298.657 2880.469 2005.007 2638.588 2009.134 2459.595 1595.685 2462.576 1983.074" class="color2d85c6 svgShape"></polygon><polygon fill="#81d1f4" points="2238.485 2030.644 2164.133 1353.683 2453.222 1349.946 2637.866 1814.745 2637.655 1345.353 2920.521 1341.466 2822.462 2047.815 2580.595 2051.942 2401.617 1638.479 2404.51 2025.868" class="color81d1f4 svgShape"></polygon><path fill="#2d85c6" d="M3286.327,1293.596c0,0-209.661-2.139-252.773,164.052
				c-43.17,166.175-62.314,551.531,240.918,553.489c303.248,1.987,296.666-304.664,288.577-366.046
				C3555.037,1583.71,3559.796,1309.743,3286.327,1293.596z" class="color2d85c6 svgShape"></path><path fill="#81d1f4" d="M3252.572,1330.153c0,0-213.248-2.289-256.705,163.78
				c-43.41,166.084-63.309,551.381,239.924,553.987c303.218,2.605,297.283-304.078,289.314-365.443
				C3517.197,1621.11,3512.799,1346.166,3252.572,1330.153z" class="color81d1f4 svgShape"></path><g fill="#000000" class="color000 svgShape"><path fill="#2d85c6" d="M2538.133,2415.472c0,0-87.379-1.897-106.149,64.486
				c-18.769,66.396-28.576,220.719,97.774,222.993c126.377,2.319,125.112-120.626,122.024-145.238
				C2648.756,2533.07,2652.025,2423.29,2538.133,2415.472z" class="color2d85c6 svgShape"></path><path fill="#81d1f4" d="M2524.049,2431.967c0,0-88.857-1.974-107.744,64.363c-18.89,66.354-29.042,220.659,97.323,223.189
				c126.377,2.561,125.338-120.368,122.325-145.011C2632.94,2549.88,2632.427,2439.679,2524.049,2431.967z" class="color81d1f4 svgShape"></path><path fill="#2d85c6" d="M3059.629 2714.217l24.057-18.061-21.043-23.453c0 0-25.531-10.529-27.039-6.025-1.506 4.535-6.025 21.074-6.025 21.074L3059.629 2714.217zM3233.892 2721.734l24.041-18.032-21.013-23.468c0 0-25.531-10.528-27.037-6.024-1.49 4.504-6.011 21.027-6.011 21.027L3233.892 2721.734z" class="color2d85c6 svgShape"></path><polygon fill="#2d85c6" points="2957.14 2434.693 2981.196 2416.647 3002.901 2430.822 3001.41 2450.388 2983.381 2457.86" class="color2d85c6 svgShape"></polygon><polygon fill="#2d85c6" points="3154.42 2430.204 3178.461 2412.188 3200.166 2426.318 3198.675 2445.854 3180.629 2453.342" class="color2d85c6 svgShape"></polygon><polygon fill="#2d85c6" points="3014.47 2698.776 2981.166 2416.889 3101.595 2414.282 3180.193 2607.36 3178.475 2411.737 3296.358 2409.132 3257.933 2703.885 3157.117 2706.415 3081.094 2534.712 3083.685 2696.156" class="color2d85c6 svgShape"></polygon><polygon fill="#81d1f4" points="2990.445 2716.764 2957.11 2434.888 3077.568 2432.329 3156.138 2625.391 3154.436 2429.782 3272.319 2427.192 3233.892 2721.929 3133.106 2724.476 3057.083 2552.757 3059.629 2714.217" class="color81d1f4 svgShape"></polygon><g fill="#000000" class="color000 svgShape"><polygon fill="#2d85c6" points="2374.111 2516.334 2394.537 2501.618 2379.64 2488.241 2362.95 2488.964 2359.32 2499.133" class="color2d85c6 svgShape"></polygon><polygon fill="#2d85c6" points="2353.806 2630.994 2374.232 2616.263 2359.32 2602.888 2342.645 2603.655 2339.015 2613.808" class="color2d85c6 svgShape"></polygon><polygon fill="#2d85c6" points="2227.518 2750.021 2247.959 2735.32 2233.047 2721.929 2216.372 2722.652 2212.727 2732.82" class="color2d85c6 svgShape"></polygon><polygon fill="#2d85c6" points="2172.388 2435.989 2192.813 2421.257 2211.628 2440.688 2198.582 2452.679 2182.254 2446.126" class="color2d85c6 svgShape"></polygon><polygon fill="#2d85c6" points="2186.111 2740.187 2192.813 2421.257 2400.396 2414.555 2394.537 2501.618 2253.08 2501.618 2253.08 2541.775 2373.629 2541.775 2373.629 2615.464 2253.08 2622.152 2248.894 2735.154" class="color2d85c6 svgShape"></polygon><polygon fill="#81d1f4" points="2165.685 2754.933 2172.388 2435.989 2379.986 2429.302 2374.111 2516.334 2232.655 2516.334 2232.655 2556.523 2353.189 2556.523 2353.189 2630.196 2232.655 2636.884 2228.468 2749.9" class="color81d1f4 svgShape"></polygon></g><g fill="#000000" class="color000 svgShape"><polygon fill="#2d85c6" points="2683.476 2428.908 2703.885 2414.179 2722.715 2433.64 2709.671 2445.583 2693.328 2439.077" class="color2d85c6 svgShape"></polygon><polygon fill="#2d85c6" points="2862.017 2436.53 2882.428 2421.8 2901.241 2441.245 2888.181 2453.222 2871.854 2446.685" class="color2d85c6 svgShape"></polygon><path fill="#2d85c6" d="M2703.691,2414.041c0,0-29.389,291.304,107.699,293.774
					c137.119,2.471,129.767-261.961,117.537-286.438c-46.529,0-46.529,0-46.529,0s-4.896,244.818-78.359,198.289
					c-73.431-46.485-31.813-190.923-34.252-200.729C2747.734,2418.938,2703.691,2414.041,2703.691,2414.041z" class="color2d85c6 svgShape"></path><path fill="#81d1f4" d="M2683.265,2428.983c0,0-29.358,291.335,107.745,293.82
					c137.088,2.426,129.753-261.991,117.522-286.469c-46.529,0-46.529,0-46.529,0s-4.897,244.819-78.345,198.304
					c-73.447-46.514-31.843-190.954-34.283-200.743C2727.34,2433.896,2683.265,2428.983,2683.265,2428.983z" class="color81d1f4 svgShape"></path></g><g fill="#000000" class="color000 svgShape"><polygon fill="#2d85c6" points="3336.728 2412.941 3357.138 2398.212 3375.951 2417.656 3362.908 2429.647 3346.564 2423.11" class="color2d85c6 svgShape"></polygon><path fill="#2d85c6" d="M3356.506,2398.526l10.559,297.871c0,0,173.994-15.786,171.357-110.713
					C3535.769,2490.772,3525.226,2382.71,3356.506,2398.526z" class="color2d85c6 svgShape"></path><path fill="#81d1f4" d="M3336.441,2413.877l10.515,297.886c0,0,173.992-15.801,171.356-110.714
					C3515.675,2506.122,3505.147,2398.06,3336.441,2413.877z" class="color81d1f4 svgShape"></path></g></g><g fill="#000000" class="color000 svgShape"><path fill="#2d85c6" d="M2904.148 2341.198l21.285-15.998-18.618-20.802c0 0-22.655-9.323-23.995-5.333-1.325 3.992-5.348 18.648-5.348 18.648L2904.148 2341.198zM3046.734 2325.411l21.301-15.997-18.588-20.802c0 0-22.671-9.324-23.996-5.379-1.34 4.009-5.332 18.665-5.332 18.665L3046.734 2325.411z" class="color2d85c6 svgShape"></path><polygon fill="#2d85c6" points="2844.635 2102.585 2865.903 2086.618 2885.184 2099.135 2883.844 2116.472 2867.892 2123.146" class="color2d85c6 svgShape"></polygon><path fill="#2d85c6" d="M2865.888,2086.136l-3.314,232.633l63.146,6.688l-6.688-53.201c0,0,36.572,26.585,53.232,66.457
					c29.885-9.941,96.373-29.9,96.373-29.9s-23.257-56.516-99.746-103.031c36.572,3.3,89.773-13.315,86.43-56.501
					C3052.023,2106.048,3028.719,2042.905,2865.888,2086.136z" class="color2d85c6 svgShape"></path><path fill="#81d1f4" d="M2844.56,2102.072l-3.315,232.724l63.174,6.612l-6.674-53.173c0,0,36.574,26.602,53.174,66.475
					c29.9-9.973,96.388-29.945,96.388-29.945s-23.273-56.472-99.703-103.032c36.558,3.329,89.731-13.256,86.403-56.456
					C3030.708,2122.046,3007.435,2058.917,2844.56,2102.072z" class="color81d1f4 svgShape"></path><path fill="#2d85c6" d="M2330.986,2168.59l20.154-14.491l-1.07-7.35l-15.876-12.383c0,0-20.907-9.082-22.233-5.377
					c-1.311,3.676-5.302,17.248-5.302,17.248l22.293,13.391L2330.986,2168.59z" class="color2d85c6 svgShape"></path><polygon fill="#2d85c6" points="2234.719 2092.281 2254.813 2077.821 2272.512 2089.841 2270.945 2105.958 2255.942 2111.849" class="color2d85c6 svgShape"></polygon><polygon fill="#2d85c6" points="2214.233 2289.683 2234.343 2275.19 2252.041 2287.242 2250.475 2303.358 2235.472 2309.248" class="color2d85c6 svgShape"></polygon><path fill="#2d85c6" d="M2351.021,2154.837l22.353-58.775c0,0-119.224-65.87-139.845,11.99
					c-20.591,77.831,34.871,90.438,67.136,132.494c8.239,10.725,5.378,46.621-66.263,34.615c1.22,44.436,1.009,54.996,1.009,54.996
					s94.867,14.625,125.249-22.852c30.353-37.463,10.199-86.521-27.338-112.671C2268.746,2149.7,2341.109,2122.89,2351.021,2154.837
					z" class="color2d85c6 svgShape"></path><path fill="#81d1f4" d="M2330.912,2169.327l22.308-58.789c0,0-119.208-65.841-139.784,11.96
					c-20.622,77.845,34.81,90.482,67.12,132.493c8.239,10.725,5.393,46.666-66.292,34.63c1.236,44.421,1.01,55.026,1.01,55.026
					s94.897,14.58,125.264-22.866c30.336-37.477,10.168-86.507-27.354-112.673
					C2248.622,2164.161,2320.969,2137.38,2330.912,2169.327z" class="color81d1f4 svgShape"></path><g fill="#000000" class="color000 svgShape"><path fill="#2d85c6" d="M2546.808 2335.668l20.729-15.544-18.092-20.244c0 0-22.022-9.084-23.332-5.182-1.28 3.886-5.168 18.135-5.168 18.135L2546.808 2335.668zM2539.866 2236.54l20.71-15.5-18.105-20.23c0 0-22.037-9.067-23.333-5.166-1.294 3.825-5.181 18.09-5.181 18.09L2539.866 2236.54zM2544.323 2138.464l20.743-15.529-18.151-20.215c0 0-21.991-9.067-23.288-5.182-1.31 3.871-5.182 18.105-5.182 18.105L2544.323 2138.464z" class="color2d85c6 svgShape"></path><polygon fill="#2d85c6" points="2414.254 2100.55 2434.981 2085.021 2453.689 2097.206 2452.424 2114.062 2436.865 2120.493" class="color2d85c6 svgShape"></polygon><polygon fill="#2d85c6" points="2434.921 2084.795 2443.703 2323.303 2567.4 2320.334 2564.447 2267.357 2494.871 2271.395 2494.525 2220.979 2560.773 2220.979 2561.511 2170.202 2492.673 2173.108 2490.128 2128.206 2565.201 2123.838 2564.447 2078.905" class="color2d85c6 svgShape"></polygon><polygon fill="#81d1f4" points="2414.179 2100.31 2423.021 2338.833 2546.719 2335.864 2543.737 2282.888 2474.19 2286.956 2473.83 2236.524 2540.077 2236.524 2540.783 2185.718 2471.976 2188.669 2469.4 2143.736 2544.46 2139.337 2543.737 2094.405" class="color81d1f4 svgShape"></polygon></g><g fill="#000000" class="color000 svgShape"><path fill="#2d85c6" d="M3298.619,2114.408c0,0-53.534-84.593-138.143-22.579
					c-84.564,62.029-64.816,231.188,47.961,234.049c28.196,2.816,84.592-14.083,107.112-53.578
					c-25.351-36.68-25.351-36.68-25.351-36.68s-82.455,68.416-118.425,7.049c-35.926-61.335,25.365-152.24,95.168-103.647
					C3281.749,2128.478,3298.619,2114.408,3298.619,2114.408z" class="color2d85c6 svgShape"></path><path fill="#81d1f4" d="M3278.811,2129.261c0,0-53.534-84.608-138.159-22.564
					c-84.547,62.06-64.83,231.217,47.961,234.035c28.213,2.816,84.595-14.114,107.114-53.551
					c-25.336-36.647-25.336-36.647-25.336-36.647s-82.5,68.325-118.425,7.021c-35.956-61.322,25.365-152.229,95.106-103.635
					C3261.894,2143.375,3278.811,2129.261,3278.811,2129.261z" class="color81d1f4 svgShape"></path></g><g fill="#000000" class="color000 svgShape"><polygon fill="#2d85c6" points="2631.222 2348.999 2648.046 2336.843 2635.771 2325.802 2621.99 2326.406 2619.021 2334.796" class="color2d85c6 svgShape"></polygon><polygon fill="#2d85c6" points="2762.361 2344.495 2779.23 2332.339 2766.924 2321.314 2753.142 2321.917 2750.145 2330.292" class="color2d85c6 svgShape"></polygon><polygon fill="#2d85c6" points="2648.966 2095.866 2665.837 2083.695 2681.337 2099.752 2670.581 2109.634 2657.086 2104.241" class="color2d85c6 svgShape"></polygon><polygon fill="#2d85c6" points="2605.388 2336.407 2666.062 2083.65 2714.988 2083.65 2779.549 2332.339 2734.553 2332.339 2716.945 2279.317 2666.062 2279.317 2648.439 2336.407" class="color2d85c6 svgShape"></polygon><polygon fill="#81d1f4" points="2588.008 2348.668 2648.679 2095.896 2697.605 2095.896 2762.165 2344.586 2717.171 2344.586 2699.548 2291.581 2648.679 2291.581 2631.056 2348.668" class="color81d1f4 svgShape"></polygon></g><g fill="#000000" class="color000 svgShape"><polygon fill="#2d85c6" points="3381.388 2063.134 3381.388 2325.999 3427.015 2325.999 3427.015 2218.269 3494.469 2216.129 3496.457 2319.536 3536.133 2319.536 3546.059 2065.288 3500.417 2067.442 3494.469 2175.174 3428.99 2179.465 3427.015 2063.134" class="color2d85c6 svgShape"></polygon><polygon fill="#2d85c6" points="3519.05 2330.955 3535.905 2319.417 3523.599 2308.947 3509.832 2309.505 3506.833 2317.472" class="color2d85c6 svgShape"></polygon><polygon fill="#2d85c6" points="3410.054 2337.236 3426.925 2325.698 3414.619 2315.198 3400.851 2315.757 3397.853 2323.739" class="color2d85c6 svgShape"></polygon><polygon fill="#2d85c6" points="3364.579 2074.777 3381.42 2063.225 3396.935 2078.483 3386.165 2087.883 3372.698 2082.761" class="color2d85c6 svgShape"></polygon><polygon fill="#2d85c6" points="3483.141 2079.056 3499.996 2067.519 3515.51 2082.761 3504.74 2092.13 3491.275 2087.024" class="color2d85c6 svgShape"></polygon><polygon fill="#81d1f4" points="3364.308 2074.507 3364.308 2337.386 3409.933 2337.386 3409.933 2229.655 3477.417 2227.517 3479.388 2330.925 3519.05 2330.925 3528.992 2076.661 3483.367 2078.815 3477.417 2186.561 3411.921 2190.868 3409.933 2074.507" class="color81d1f4 svgShape"></polygon></g></g><g fill="#000000" class="color000 svgShape"><polygon fill="#81d1f4" points="2340.039 1052.106 2360.238 365.067 3606.341 418.962 3552.461 1099.269" class="color81d1f4 svgShape"></polygon><polygon fill="#caeaf5" points="2400.457 1013.755 2418.441 408.645 3527.366 456.108 3479.42 1055.284" class="colorcaeaf5 svgShape"></polygon><g fill="#000000" class="color000 svgShape"><polygon fill="#077199" points="3551.844 1099.269 3551.844 1130.042 3466.781 1140.3 3509.726 1104.39" class="color077199 svgShape"></polygon><polygon fill="#077199" points="3552.264 1130.208 3161.56 1433.32 2056.916 1379.44 2339.828 1083.045" class="color077199 svgShape"></polygon><polygon fill="#2d85c6" points="3552.264 1099.071 3161.56 1402.185 2056.916 1348.304 2339.828 1051.925" class="color2d85c6 svgShape"></polygon></g></g><g fill="#000000" class="color000 svgShape"><path fill="#2d85c6" d="M1172.1,1891.296c0,0-101.043,191.978,111.149,232.376c212.178,40.429,545.598,0,636.517-10.092
			c90.936-10.107,154.938-107.761,107.776-245.843C1980.396,1729.64,1222.621,1754.899,1172.1,1891.296z" class="color2d85c6 svgShape"></path><path fill="#70c4ee" d="M2035.963,1887.349c0,65.389-188.875,118.381-421.825,118.381
			c-232.964,0-421.824-52.992-421.824-118.381s188.86-118.379,421.824-118.379C1847.088,1768.97,2035.963,1821.96,2035.963,1887.349
			z" class="color70c4ee svgShape"></path><path fill="#2d85c6" d="M1838.939,2679.377c0,39.074-104.041,70.721-232.377,70.721
			c-128.352,0-232.392-31.646-232.392-70.721s104.04-70.721,232.392-70.721C1734.898,2608.656,1838.939,2640.303,1838.939,2679.377z
			" class="color2d85c6 svgShape"></path><rect width="68.462" height="570.857" x="1572.323" y="2088.319" fill="#2d85c6" class="color2d85c6 svgShape"></rect></g><polygon fill="#61b3e3" points="2788.677 1345.714 2167.312 1320.453 2379.49 1093.106 3026.115 1123.429" class="color61b3e3 svgShape"></polygon><polygon fill="#61b3e3" points="2788.677 1343.183 2167.312 1317.922 2379.49 1090.592 3026.115 1120.898" class="color61b3e3 svgShape"></polygon><polygon fill="#61b3e3" points="3086.742 1123.429 2849.304 1345.714 3132.203 1365.913 3399.947 1138.583" class="color61b3e3 svgShape"></polygon><g fill="#000000" class="color000 svgShape"><polygon fill="#1979a8" points="2036.231 1347.568 2036.231 1377.875 2115.387 1350.926 2117.917 1318.104" class="color1979a8 svgShape"></polygon><path fill="#f5882f" d="M1479.789,551.232c0,0-404.141,368.788-222.27,651.685c-55.568,90.936-363.726,611.271,0,732.514
			s508.542,3.359,528.757,0c77.469,0,191.962-30.307,222.269-30.307c30.322,0,50.522,20.215,67.377,33.681
			c16.841,13.467,80.829-0.015,77.454-53.88c-2.53-40.43-8.104-74.05-28.619-95.996c-6.839-7.307-20.199-15.154-28.635-28.62
			c3.36-47.147-16.84-90.935-37.054-121.242c-20.2-30.321-10.093-127.976-10.093-144.815c0-16.855,44.165-10.243,97.669-30.322
			c26.947-10.107,42.146-34.103,70.721-60.629c32.897-30.502,57.646-77.694,77.469-74.08c23.062,4.188,77.514-7.065,80.813-38.74
			c2.019-19.206-28.018-44.377-57.255-82.501c23.573-23.573,33.696-94.309,37.056-158.282
			c3.358-64.003,33.68-235.767,40.414-249.232c6.733-13.467,60.627-63.973,84.201-57.238c23.559,6.717-26.932-43.789-134.723-30.309
			c-63.988-30.321-316.58-175.152-562.438-178.511c-47.147-47.147-168.374-107.775-306.472-107.775
			C1479.789,473.779,1493.27,527.658,1479.789,551.232z" class="colorf5882f svgShape"></path><path fill="#f3a430" d="M2318.391,1207.979c23.573-23.573,33.696-94.309,37.056-158.282
			c3.358-64.003,33.68-235.767,40.414-249.232c6.733-13.467,60.627-63.973,84.201-57.238c23.559,6.717-26.932-43.789-134.723-30.309
			c-63.988-30.321-316.58-175.152-562.438-178.511c-5.694-5.708,7.772,5.949,0,0c-135.658,165.708-412.35,501.327-306.472,690.397
			c26.194,46.771,99.943,28.649,154.938,30.307c104.372,3.179,198.696,1.688,289.632,10.107
			c92.321,8.541,245.045-107.369,334.669-87.139c8.857-1.266,16.388-7.668,35.369,2.529
			C2317.246,1194.664,2335.352,1230.091,2318.391,1207.979z" class="colorf3a430 svgShape"></path><path fill="#c16d29" d="M2071.622,1930.462c16.841,13.467,80.829-0.015,77.454-53.88
			c-2.53-40.43-8.104-74.05-28.619-95.996c-6.839-7.307-20.199-15.154-28.635-28.62c3.36-47.147-16.839-90.936-37.054-121.242
			c-19.807-29.73-10.477-124.186-10.105-143.729l-1.659-1.072c0,0-366.228,152.02-611.01,196.034
			c-244.781,44.015-347.162-51.232-347.162-51.232l-3.87,2.982c-13.071,126.819,23.095,243.661,172.258,293.382
			c363.727,121.242,508.542,3.359,528.757,0c77.469,0,191.962-30.307,222.269-30.307
			C2034.567,1896.782,2054.767,1916.997,2071.622,1930.462z" class="colorc16d29 svgShape"></path><path fill="#f7bacd" d="M2313.496,1118.308c1.16,35.324-21.841,54.635-57.164,55.779
			c-35.323,1.159-69.606-16.283-70.751-51.606c-1.16-35.322,26.525-64.891,61.849-66.051
			C2282.767,1055.285,2312.335,1082.986,2313.496,1118.308z" class="colorf7bacd svgShape"></path><path fill="#231f20" d="M2030.838,1001.796c32.868-16.735,83.796-4.76,114.268,28.002
			c-26.044,9.821-52.103,19.643-73.99,30.789C2058.63,1042.813,2043.341,1019.555,2030.838,1001.796" class="color231f20 svgShape"></path><path fill="#231f20" d="M2065.227,1040.931c-5.106,24.039-13.647,46.875-24.477,68.912
				c-4.293,8.736,8.767,16.419,13.089,7.652c11.388-23.182,20.622-47.238,26.014-72.543
				C2081.887,1035.431,2067.291,1031.365,2065.227,1040.931L2065.227,1040.931z" class="color231f20 svgShape"></path><path fill="#231f20" d="M1960.042,1230.167c35.639-42.854,71.263-85.995,103.89-131.198
				c-4.7-1.281-9.414-2.56-14.115-3.826c3.284,41.92-8.344,82.666-5.061,124.615c0.768,9.671,15.937,9.746,15.154,0
				c-3.284-41.934,8.36-82.68,5.061-124.615c-0.617-7.772-9.656-10.018-14.129-3.826c-31.859,44.149-66.714,86.281-101.51,128.126
				C1943.112,1226.914,1953.776,1237.683,1960.042,1230.167L1960.042,1230.167z" class="color231f20 svgShape"></path><path fill="#231f20" d="M2254.419,1333.408c22.082,0.377,141.877,8.616,128.546-44.947
				c-8.283-33.289-54.587-104.235-90.979-113.771c-59.092-15.485-122.974,17.896-178.512,36.919
				c-72.016,24.674-141.727,46.319-218.232,42.372c-131.485-6.808-265.124,3.3-395.509-10.061
				c-78.66-8.074-170.574-9.084-235.33-60.795c-84.337-67.376-51.019-237.618-5.377-317.377c4.85-8.511-8.225-16.133-13.09-7.652
				c-62.873,109.9-82.47,311.955,60.614,366.875c116.934,44.873,247.108,36.182,369.375,38.018
				c73.116,1.1,146.292,2.712,219.318,6.146c67.587,3.164,126.755-12.11,191.255-32.641
				c60.554-19.281,153.899-70.767,214.603-40.519c23.498,11.719,44.662,57.118,58.384,78.99
				c31.618,50.4-79.985,43.697-105.064,43.291C2244.628,1318.104,2244.643,1333.257,2254.419,1333.408L2254.419,1333.408z" class="color231f20 svgShape"></path><path fill="#231f20" d="M2042.242,1495.08c109.056,1.853,190.321-67.271,238.913-160.36
				c4.535-8.661-8.555-16.314-13.074-7.652c-46.154,88.39-121.74,154.622-225.839,152.858
				C2032.465,1479.76,2032.48,1494.914,2042.242,1495.08L2042.242,1495.08z" class="color231f20 svgShape"></path><path fill="#231f20" d="M2044.757,1490.863c-3.961,44.858-8.405,88.826,0.271,133.367
				c9.053,46.408,40.308,79.155,40.143,129.33c-0.03,9.775,15.123,9.762,15.154,0c0.12-35.985-10.589-63.385-26.12-95.348
				c-26.149-53.745-19.37-109.961-14.294-167.35C2060.784,1481.132,2045.616,1481.207,2044.757,1490.863L2044.757,1490.863z" class="color231f20 svgShape"></path><path fill="#231f20" d="M2050.993,1774.347c48.08-9.926,78.493,18.875,89.625,63.145
				c9.414,37.416-3.706,101.63-53.081,90.002c-26.707-6.281-51.711-18.965-78.433-25.638c-33.078-8.239-66.262,0.211-96.855,12.788
				c-8.903,3.676-5.001,18.347,4.037,14.611c41.318-16.99,78.328-17.819,120.579-3.359c20.757,7.11,40.866,16.254,62.752,19.221
				c27.325,3.705,41.499-16.193,50.657-38.576c30.126-73.568-19.717-164.052-103.318-146.818
				C2037.391,1761.709,2041.457,1776.306,2050.993,1774.347L2050.993,1774.347z" class="color231f20 svgShape"></path><path fill="#f7bacd" d="M1934.48,1042.933c0,57.662-46.77,104.417-104.431,104.417
			c-57.662,0-104.402-46.755-104.402-104.417c0-57.646,46.74-104.4,104.402-104.4C1887.71,938.533,1934.48,985.288,1934.48,1042.933
			z" class="colorf7bacd svgShape"></path><defs><path id="a" d="M1478.116,551.232c0,0-404.14,368.788-222.269,651.685c-55.567,90.936-363.726,611.271,0,732.514
					s508.542,3.359,528.742,0c77.469,0,191.978-30.307,222.285-30.307c30.306,0,50.521,20.215,67.361,33.681
					c16.841,13.467,80.843-0.015,77.469-53.88c-2.531-40.43-8.104-74.05-28.62-95.996c-6.839-7.307-20.214-15.154-28.635-28.62
					c3.358-47.147-16.841-90.935-37.055-121.242c-20.215-30.321-10.107-127.976-10.107-144.815c0-16.855,44.18-10.243,97.684-30.322
					c26.948-10.107,42.131-34.103,70.721-60.629c32.897-30.502,57.646-77.694,77.469-74.08c23.046,4.188,77.499-7.065,80.813-38.74
					c2.018-19.206-28.033-44.377-57.256-82.501c23.574-23.573,33.697-94.309,37.055-158.282
					c3.36-64.003,33.681-235.767,40.415-249.232c6.732-13.467,60.629-63.973,84.187-57.238
					c23.573,6.717-26.934-43.789-134.709-30.309c-63.988-30.321-316.594-175.152-562.437-178.511
					c-47.147-47.147-168.375-107.775-306.472-107.775C1478.116,473.779,1491.583,527.658,1478.116,551.232z" fill="#000000" class="color000 svgShape"></path></defs><clipPath id="b"><use overflow="visible" xlink:href="#a"></use></clipPath><g clip-path="url(#b)" fill="#000000" class="color000 svgShape"><path fill="#723a18" d="M2128.161 557.347c-11.011 57.346-58.189 165.227-3.239 204.451 69.817 58.625 102.549-94.235 108.514-151.641M2257.792 644.667c-50.521 94.717 50.521 138.927 45.46 25.262M2005.202 537.752c-65.675 147.782 65.659 218.443 85.874 19.279" class="color723a18 svgShape"></path><polygon fill="#723a18" points="1474.758 426.631 1530.325 497.351 1742.502 504.928 1795.54 461.984 1765.232 388.732 1618.73 340.742 1530.325 350.849" class="color723a18 svgShape"></polygon><path fill="#723a18" d="M2478.375,743.226l-74.095-0.859l-60.614-40.414l22.731-37.898l55.565-30.307
					c0,0,50.522,5.045,55.568,12.623c5.062,7.592,27.792,78.297,27.792,78.297L2478.375,743.226z" class="color723a18 svgShape"></path></g><defs><path id="c" d="M1478.132,551.248c0,0-404.14,368.787-222.285,651.685c-55.567,90.936-363.726,611.271,0,732.514
					c363.741,121.242,508.557,3.358,528.756,0c77.469,0,191.978-30.322,222.285-30.322c30.307,0,50.506,20.215,67.346,33.695
					c16.855,13.467,80.843-0.015,77.469-53.895c-2.516-40.414-8.104-74.05-28.62-95.981c-6.839-7.306-20.214-15.153-28.635-28.62
					c3.358-47.162-16.841-90.936-37.055-121.242c-20.199-30.321-10.092-127.974-10.092-144.816
					c0-16.855,44.179-10.257,97.668-30.336c26.948-10.107,42.146-34.088,70.736-60.613c32.898-30.518,57.631-77.71,77.454-74.096
					c23.061,4.203,77.514-7.049,80.827-38.74c2.004-19.191-28.031-44.377-57.254-82.501c23.574-23.573,33.681-94.294,37.056-158.282
					c3.358-63.988,33.679-235.751,40.413-249.217c6.719-13.467,60.615-63.988,84.188-57.254
					c23.574,6.732-26.948-43.773-134.708-30.309c-64.003-30.321-316.594-175.137-562.437-178.496
					c-47.163-47.162-168.39-107.775-306.472-107.775C1478.132,473.793,1491.599,527.673,1478.132,551.248z" fill="#000000" class="color000 svgShape"></path></defs><clipPath id="d"><use overflow="visible" xlink:href="#c"></use></clipPath><g clip-path="url(#d)" fill="#000000" class="color000 svgShape"><path fill="#8c5122" d="M2128.176 557.363c-11.011 57.344-58.204 165.227-3.238 204.449 69.802 58.611 102.533-94.233 108.498-151.639M2257.792 644.683c-50.507 94.716 50.521 138.926 45.46 25.261M2005.216 537.765c-65.689 147.768 65.659 218.443 85.874 19.281M2478.39 743.226l-74.094-.859-60.614-40.414 22.73-37.883 55.568-30.322c0 0 50.52 5.06 55.566 12.638 5.06 7.577 27.791 78.298 27.791 78.298L2478.39 743.226z" class="color8c5122 svgShape"></path></g><path fill="#eedeb3" d="M1474.758,426.631c0,0,143.128,70.735,153.236,94.294c-37.055,0-149.878,30.307-149.878,30.307
			L1474.758,426.631z" class="coloreedeb3 svgShape"></path><path fill="#723a18" d="M1592.324,482.244c11.509,15.273,23.438,30.623,38.622,42.463
				c10.152,7.893,24.553-6.297,14.295-14.295c-13.813-10.77-24.99-24.463-35.474-38.381
				C1602.04,461.773,1584.462,471.82,1592.324,482.244L1592.324,482.244z" class="color723a18 svgShape"></path><path fill="#c16d29" d="M1089.13,1639.067c0,0,127.99,252.591,545.597,114.493
			c87.561-6.732,205.429,67.377,149.862,175.152c-55.552,107.762-506.855,127.945-668.512-40.428
			C1082.397,1841.136,1055.464,1719.894,1089.13,1639.067z" class="colorc16d29 svgShape"></path><path fill="#231f20" d="M1156.085,1733.767c97.292,78.313,228.159,82.922,346.464,62.195
				c82.168-14.399,162.574-77.694,239.531-15.047c57.36,46.695,72.408,138.052-4.684,172.726
				c-11.854,5.348-1.567,22.745,10.213,17.443c123.757-55.658,45.625-221.969-63.792-239.411
				c-29.191-4.654-59.966,5.829-87.109,15.003c-46.634,15.771-90.483,29.629-139.573,35.91
				c-98.256,12.518-207.478,0.707-286.77-63.115C1160.317,1711.384,1145.917,1725.589,1156.085,1733.767L1156.085,1733.767z" class="color231f20 svgShape"></path><defs><path id="e" d="M1089.13,1633.806c0,0,127.99,252.591,545.597,114.493c87.561-6.732,205.429,67.377,149.862,175.152
					c-55.552,107.762-506.855,127.945-668.512-40.428C1082.397,1835.876,1055.464,1714.634,1089.13,1633.806z" fill="#000000" class="color000 svgShape"></path></defs><clipPath id="f"><use overflow="visible" xlink:href="#e"></use></clipPath><g clip-path="url(#f)" fill="#000000" class="color000 svgShape"><path fill="#231f20" d="M1447.569 1718.641c20.455 143.836 111.692 316.835 257.246 365.006 49.632 16.419 70.721-61.652 21.495-77.95-117.717-38.939-184.702-195.308-200.789-308.551C1518.2 1645.706 1440.324 1667.668 1447.569 1718.641L1447.569 1718.641zM1348.454 1707.901c-6.944 123.457 2.064 326.144 136.26 383.158 35.548 15.092 66.487-37.101 30.607-52.344-112.024-47.585-111.993-228.446-106.239-330.814C1411.282 1668.828 1350.639 1669.023 1348.454 1707.901L1348.454 1707.901z" class="color231f20 svgShape"></path></g><path fill="#231f20" d="M1565.347 891.957c80.813 22.189 176.086 46.063 232.422 112.566 6.31 7.471 16.99-3.299 10.709-10.71-57.917-68.386-156.158-93.691-239.095-116.482C1559.939 874.755 1555.948 889.382 1565.347 891.957L1565.347 891.957zM1623.279 1026.681c54.393-13.918 115.639-5.031 162.544 26.164 8.165 5.422 15.742-7.713 7.653-13.075-50.19-33.38-116.106-42.567-174.234-27.716C1609.782 1014.479 1613.804 1029.09 1623.279 1026.681L1623.279 1026.681zM1550.991 1167.353c73.432-49.256 157.469-78.115 245.392-86.522 9.64-.918 9.73-16.086 0-15.152-90.575 8.645-177.337 37.807-253.043 88.6C1535.266 1159.687 1542.842 1172.822 1550.991 1167.353L1550.991 1167.353z" class="color231f20 svgShape"></path><path fill="#eedeb3" d="M2394.189,800.464l84.187-57.238l-99.355-3.391C2379.02,739.836,2395.875,786.998,2394.189,800.464
			z" class="coloreedeb3 svgShape"></path><path fill="#231f20" d="M2306.927 1105.55c48.428-45.295 110.624-56.471 174.49-45.203 9.551 1.687 13.633-12.909 4.023-14.611-69.607-12.277-136.607-.105-189.222 49.105C2289.048 1101.529 2299.803 1112.223 2306.927 1105.55L2306.927 1105.55zM2310.317 1141.189c35.036-12.563 70.21-5.316 101.933 12.699 8.51 4.82 16.146-8.255 7.65-13.09-35.006-19.868-74.923-28.094-113.604-14.235C2297.167 1129.832 2301.084 1144.489 2310.317 1141.189L2310.317 1141.189z" class="color231f20 svgShape"></path><g fill="#000000" class="color000 svgShape"><path fill="#8c5122" d="M2377.333,741.523c8.991,0,17.969,0,26.947,0c6.507,0,6.507-10.107,0-10.107
				c-8.979,0-17.956,0-26.947,0C2370.826,731.416,2370.826,741.523,2377.333,741.523L2377.333,741.523z" class="color8c5122 svgShape"></path></g><g fill="#000000" class="color000 svgShape"><path fill="#231f20" d="M1875.192,922.279c35.761,10.559,70.3,24.779,106.074,35.354
				c9.399,2.771,13.376-11.87,4.037-14.627c-35.774-10.559-70.314-24.779-106.104-35.367
				C1869.815,904.881,1865.823,919.507,1875.192,922.279L1875.192,922.279z" class="color231f20 svgShape"></path></g><g fill="#000000" class="color000 svgShape"><path fill="#231f20" d="M2188.413,1013.2c24.04,5.121,46.875,13.647,68.913,24.492c8.737,4.293,16.419-8.767,7.652-13.075
				c-23.182-11.402-47.237-20.636-72.543-26.028C2182.915,996.554,2178.848,1011.166,2188.413,1013.2L2188.413,1013.2z" class="color231f20 svgShape"></path></g><g fill="#000000" class="color000 svgShape"><path fill="#231f20" d="M2193.459,962.677c35.743,6.041,67.241,23.514,99.234,39.646
				c8.691,4.398,16.374-8.676,7.652-13.074c-33.094-16.689-65.87-34.932-102.85-41.184
				C2187.93,946.455,2183.848,961.05,2193.459,962.677L2193.459,962.677z" class="color231f20 svgShape"></path></g><g fill="#000000" class="color000 svgShape"><path fill="#231f20" d="M1868.79,855.173c50.311,5.317,95.018,32.279,142.813,46.891
				c9.368,2.863,13.345-11.779,4.022-14.626c-49.347-15.063-94.868-41.935-146.835-47.419
				C1859.09,838.996,1859.181,854.164,1868.79,855.173L1868.79,855.173z" class="color231f20 svgShape"></path></g><g fill="#000000" class="color000 svgShape"><path fill="#231f20" d="M2478.044,735.904c-68.342,23.394-99.252,77.44-108.514,146.85
				c-13.722,102.91-1.236,211.516-55.974,304.543c-4.971,8.451,8.133,16.059,13.074,7.668
				c39.404-66.971,46.138-142.947,50.461-218.941c5.002-88.404,6.478-191.797,104.975-225.492
				C2491.269,747.382,2487.322,732.742,2478.044,735.904L2478.044,735.904z" class="color231f20 svgShape"></path></g></g></svg>